<svg width="564" height="60" viewBox="0 0 564 60" fill="none" xmlns="http://www.w3.org/2000/svg">
<path d="M3.63281 3.48438L4.49219 3.25C8.65885 3.25 12.2526 3.71875 15.2734 4.65625H16.6016H17.6172L17.7734 5.04688L17.6953 9.57812C17.6432 9.89062 17.4609 10.0469 17.1484 10.0469L16.2109 9.10938L14.1016 8.64062H13.3984L12.9297 8.79688V9.10938C13.6589 9.42188 14.1276 9.57812 14.3359 9.57812V9.73438C14.3359 9.94271 13.737 10.099 12.5391 10.2031L12.0703 25.4375V27.0781L11.9922 48.0156V49.2656C11.9922 49.7344 13.4505 49.9688 16.3672 49.9688H31.3672L33.8672 50.125C34.1797 50.125 34.4401 48.6927 34.6484 45.8281C34.8047 45.099 35.0391 44.7344 35.3516 44.7344C38.4245 44.8385 39.9609 45.125 39.9609 45.5938C39.7526 46.0625 39.4401 46.2969 39.0234 46.2969V46.5312C39.5443 47.0521 39.8047 47.4948 39.8047 47.8594C39.8047 49.0573 39.6224 50.6458 39.2578 52.625V53.7969L39.3359 54.1875C39.0234 54.7604 38.8672 55.2812 38.8672 55.75C38.763 55.75 38.5547 56.0885 38.2422 56.7656C37.0964 57.1823 35.9766 57.3906 34.8828 57.3906H34.5703L27.8516 56.7656H27.4609L12.0703 57.3906L1.36719 56.375C0.950521 56.0625 0.742188 55.724 0.742188 55.3594C1.15885 52.2865 1.8099 50.75 2.69531 50.75C2.95573 50.4896 3.97135 50.2812 5.74219 50.125C6.41927 48.4583 6.44531 40.9062 5.82031 27.4688C6.13281 23.8229 6.39323 18.4062 6.60156 11.2188V10.4375C6.60156 9.65625 6.05469 9.26562 4.96094 9.26562L4.25781 9.10938V8.875C5.19531 8.40625 5.92448 8.17188 6.44531 8.17188V7.85938L4.64844 7.625H3.55469V7.9375C3.76302 7.9375 3.86719 8.01562 3.86719 8.17188C3.71094 8.43229 3.47656 8.5625 3.16406 8.5625H2.85156C2.33073 8.35417 2.07031 7.75521 2.07031 6.76562V6.53125C2.07031 5.33333 2.40885 4.57812 3.08594 4.26562C3.24219 4.26562 3.42448 4.00521 3.63281 3.48438ZM4.25781 5.90625L4.02344 6.0625V6.21875H4.41406L4.64844 5.98438V5.90625H4.25781ZM14.6484 5.98438L14.3359 6.21875V6.375L14.8828 6.53125V6.60938L14.6484 6.76562L13.0859 6.6875L13.0078 6.76562V7.15625L13.2422 7.39062H14.8047C15.638 7.39062 16.0547 7.10417 16.0547 6.53125C15.6901 6.16667 15.2995 5.98438 14.8828 5.98438H14.6484ZM8.86719 6.53125C9.07552 6.89583 9.64844 7.07812 10.5859 7.07812H11.1328L11.5234 6.6875C11.0547 6.375 10.5859 6.21875 10.1172 6.21875H9.49219C9.07552 6.21875 8.86719 6.32292 8.86719 6.53125ZM10.6641 7.9375L10.2734 8.09375V8.17188L10.4297 8.48438H10.9766L11.4453 8.32812V8.09375L10.9766 7.9375H10.6641ZM10.3516 9.57812L10.2734 9.73438V10.8281C10.3255 11.5052 10.4557 11.8438 10.6641 11.8438L11.1328 11.5312V10.9844C11.0807 10.0469 10.8203 9.57812 10.3516 9.57812ZM9.80469 25.0469H9.57031C9.15365 27.2344 9.1276 28.6667 9.49219 29.3438C9.7526 29.8125 9.9349 29.6562 10.0391 28.875L10.1172 26.2969C10.0651 25.4635 9.96094 25.0469 9.80469 25.0469ZM38.4766 47.7031H38.3203C37.9036 48.7969 37.6953 49.4219 37.6953 49.5781L37.0703 52.8594V53.1719L37.3047 53.4062H37.5391C38.2161 53.0938 38.6068 51.6094 38.7109 48.9531C38.6589 48.1198 38.5807 47.7031 38.4766 47.7031ZM9.49219 48.0156H9.10156V48.25C8.84115 49.0312 8.71094 49.6042 8.71094 49.9688C8.71094 50.6979 8.89323 51.1406 9.25781 51.2969H9.57031C9.77865 51.2969 9.88281 50.5417 9.88281 49.0312V48.7188C9.88281 48.3542 9.7526 48.1198 9.49219 48.0156ZM30.9766 50.6719H30.1953V50.9062C30.1953 51.0625 30.5339 51.1667 31.2109 51.2188C31.2109 51.6354 31.6797 51.8698 32.6172 51.9219L34.1016 51.7656V51.4531C33.112 51.4531 32.0703 51.1927 30.9766 50.6719ZM28.7891 51.4531H26.7578V51.5312C26.8099 51.6875 27.0703 51.7656 27.5391 51.7656H29.2578V51.5312L28.7891 51.4531ZM2.22656 52.625C2.64323 52.625 2.85156 52.4427 2.85156 52.0781V51.9219H2.69531C2.38281 51.974 2.22656 52.2083 2.22656 52.625ZM9.96094 52.4688H9.57031V52.8594C10.5078 53.0156 15.1953 53.3021 23.6328 53.7188L23.7891 53.6406V53.4844L9.96094 52.4688ZM2.38281 53.1719L1.91406 53.25V53.4844L2.14844 53.7188H2.38281L2.61719 53.4844V53.4062L2.38281 53.1719ZM28.1641 53.875L28.0078 54.0312V54.1875L28.7109 54.3438H29.8047V54.1875C29.8047 53.9792 29.6224 53.875 29.2578 53.875H28.1641ZM31.5234 54.8906V54.9688H31.7578C32.2786 54.9688 32.7995 54.7604 33.3203 54.3438C33.2682 54.1354 33.0599 54.0312 32.6953 54.0312C32.487 54.0312 32.0964 54.3177 31.5234 54.8906ZM33.7891 55.2031L32.6172 55.2812V55.3594C33.0339 55.776 33.5547 55.9844 34.1797 55.9844H34.4141C34.6745 55.9844 34.9089 55.8802 35.1172 55.6719C35.3776 55.8802 35.6641 55.9844 35.9766 55.9844H36.6016C37.1745 55.9844 37.487 55.8802 37.5391 55.6719V55.5938C37.5391 55.3333 36.7318 55.2031 35.1172 55.2031H33.7891ZM12.4609 55.9062L10.7422 55.9844V56.1406C10.7422 56.5052 11.9661 56.7396 14.4141 56.8438C16.0286 56.8438 17.3568 56.6875 18.3984 56.375V56.1406C16.2109 55.9844 14.2578 55.9062 12.5391 55.9062H12.4609ZM9.17969 56.1406H9.02344V56.375H9.17969V56.1406ZM21.3672 56.1406L20.8984 56.2969V56.6094H21.3672L22.3047 56.375V56.1406H21.3672ZM62.3828 20.0469L64.5703 20.6719H65.2734C68.2422 22.1302 71.0026 23.875 73.5547 25.9062C76.2109 28.1979 77.5391 29.9167 77.5391 31.0625H77.3828C76.9661 30.3333 76.5495 29.9688 76.1328 29.9688H76.0547C75.8984 29.9688 75.8203 30.0729 75.8203 30.2812C76.0286 30.8542 76.4974 31.8438 77.2266 33.25H77.3828C77.487 33.25 77.6172 32.9896 77.7734 32.4688H77.8516C78.0078 32.5208 78.1901 33.276 78.3984 34.7344L79.1016 36.2969L78.9453 37.3125L79.1797 40.125C78.8151 41.4271 78.4766 43.1458 78.1641 45.2812C77.9557 46.2708 75.5339 49.9688 70.8984 56.375C68.8151 58.3542 66.7839 59.3438 64.8047 59.3438C62.9818 59.5521 60.9245 59.6562 58.6328 59.6562H57.1484C56.263 59.6562 53.9453 58.901 50.1953 57.3906C45.4557 53.1719 43.0859 49.9427 43.0859 47.7031C42.4089 46.2969 41.8359 44.9948 41.3672 43.7969C41.3672 43.1198 42.0703 40.8802 43.4766 37.0781C43.4766 34.6823 44.0495 33.0156 45.1953 32.0781C47.6432 26.8177 50.7422 23.4062 54.4922 21.8438C57.7734 20.6458 60.4036 20.0469 62.3828 20.0469ZM48.3203 44.5781V45.0469C49.0495 46.4531 49.8568 47.9635 50.7422 49.5781C50.7422 50.099 51.7318 50.8281 53.7109 51.7656C54.6484 52.8594 56.3932 53.7188 58.9453 54.3438L60.3516 54.5C62.6432 54.0312 64.362 53.5365 65.5078 53.0156L68.3203 50.6719C71.237 47.5469 72.6432 44.9167 72.5391 42.7812V42.0781C72.2266 41.2448 72.0703 39.8906 72.0703 38.0156C72.0703 36.5573 72.1745 35.4115 72.3828 34.5781C72.3828 34.2135 71.3672 33.3021 69.3359 31.8438C67.8776 29.7604 66.3672 28.4844 64.8047 28.0156H63.8672C57.7734 28.276 54.7266 28.7708 54.7266 29.5C53.3724 30.8542 52.4349 32.1823 51.9141 33.4844C50.2474 35.2552 49.4141 36.4271 49.4141 37C48.9453 39.1354 48.5807 41.6615 48.3203 44.5781ZM50.7422 25.6719L50.5078 26.0625V26.375C50.8203 26.375 52.4089 25.2812 55.2734 23.0938L55.8984 22.8594L56.3672 22.9375C59.8568 22.5729 61.6016 22.2344 61.6016 21.9219V21.8438L60.3516 21.6094C56.8099 21.6094 53.6068 22.9635 50.7422 25.6719ZM56.8359 27.3125V27.3906L56.9922 27.625H58.0859L63.6328 26.375V26.2188L62.1484 25.9062C58.6068 26.3229 56.8359 26.7917 56.8359 27.3125ZM44.5703 46.7656L44.2578 47V47.5469C44.362 49.3177 44.8568 50.3073 45.7422 50.5156L45.8203 50.4375V50.3594C45.4557 47.9635 45.0391 46.7656 44.5703 46.7656ZM56.6797 24.6562V25.0469C60.7422 24.5781 62.7734 24.2656 62.7734 24.1094L62.1484 23.875H62.0703C59.5703 23.875 57.7734 24.1354 56.6797 24.6562ZM63.3203 21.6875C63.5807 22.4167 64.1536 22.7812 65.0391 22.7812L65.8203 22.8594L65.9766 22.7812V22.3906C65.9766 21.8177 65.4297 21.4792 64.3359 21.375C63.6589 21.4271 63.3203 21.5312 63.3203 21.6875ZM49.1016 54.6562H48.5547V54.9688C49.2318 55.6458 50.4557 55.9844 52.2266 55.9844H53.0859C52.8255 55.6198 51.4974 55.1771 49.1016 54.6562ZM61.9922 57.5469V57.7031C61.9922 57.8594 62.3828 57.9896 63.1641 58.0938C64.0495 58.0938 64.4922 57.9635 64.4922 57.7031V57.5469C64.4401 57.3385 64.2578 57.1302 63.9453 56.9219H63.2422C62.6693 56.9219 62.2526 57.1302 61.9922 57.5469ZM76.8359 42.7031C76.888 44.2656 77.0182 45.099 77.2266 45.2031H77.3828C77.3828 44.6302 77.6172 44.0052 78.0859 43.3281V43.0938L77.2266 41.9219H77.0703C76.9661 41.9219 76.888 42.1823 76.8359 42.7031ZM71.6797 29.2656H71.3672C71.6797 29.9427 72.4349 30.5156 73.6328 30.9844H73.9453L74.1797 30.75V30.6719C73.2943 29.7344 72.4609 29.2656 71.6797 29.2656ZM69.9609 26.8438V27C70.1172 27.625 70.8464 28.276 72.1484 28.9531H72.3828L72.5391 28.7188V28.6406C72.2786 28.276 71.4193 27.6771 69.9609 26.8438ZM64.8047 24.2656L64.6484 24.3438C65.638 25.125 66.4193 25.5156 66.9922 25.5156L67.0703 25.3594V25.2812C66.237 24.6042 65.4818 24.2656 64.8047 24.2656ZM54.4141 55.6719V55.9062C54.4141 56.2188 55.1432 56.375 56.6016 56.375L56.6797 56.2969V56.1406C56.0026 55.8281 55.2474 55.6719 54.4141 55.6719ZM68.7891 23.4062L68.5547 23.6406C69.1276 24.3698 69.7005 24.7344 70.2734 24.7344C70.2734 24.1615 69.8307 23.7188 68.9453 23.4062H68.7891ZM49.7266 31.4531V32H49.9609C50.638 31.375 50.9766 30.8802 50.9766 30.5156V30.4375H50.5859C50.2734 30.6458 49.987 30.9844 49.7266 31.4531ZM67.3828 27.8594C67.6953 28.3802 68.0599 28.6406 68.4766 28.6406L68.5547 28.4844V28.3281C68.5547 27.8594 68.3464 27.625 67.9297 27.625C67.5651 27.6771 67.3828 27.7552 67.3828 27.8594ZM74.9609 48.4062V48.4844C75.3776 48.4844 75.7422 48.0677 76.0547 47.2344V47.0781H75.8203C75.5078 47.0781 75.2214 47.5208 74.9609 48.4062ZM51.3672 27.3906C51.8359 27.3906 52.2786 27.0781 52.6953 26.4531V26.2188C51.8099 26.4792 51.3672 26.8698 51.3672 27.3906ZM76.2109 47H76.6016L76.9141 47.2344C76.9661 46.401 76.8359 46.0365 76.5234 46.1406H76.3672L76.2891 45.5938L76.2109 47ZM66.2109 58.0938H66.2891C67.2266 57.7812 67.6953 57.5208 67.6953 57.3125L67.5391 57.1562C66.8099 57.4167 66.3672 57.7292 66.2109 58.0938ZM47.4609 51.9219L47.1484 52.0781V52.2344L47.7734 52.8594H48.0859C48.0859 52.4948 47.8776 52.1823 47.4609 51.9219ZM52.7734 56.7656V56.8438H53.7891L53.9453 56.6875L53.7891 56.4531H53.6328C53.112 56.4531 52.8255 56.5573 52.7734 56.7656ZM78.0859 37.1562L77.8516 37.3906V37.7031L78.0859 38.0156L78.3984 37.7031V37.3906L78.1641 37.1562H78.0859ZM45.0391 34.6562C45.2995 34.6562 45.5339 34.474 45.7422 34.1094V33.9531C45.2734 33.9531 45.0391 34.1875 45.0391 34.6562ZM42.6172 43.0938L42.4609 43.3281C42.513 43.7969 42.5911 44.0312 42.6953 44.0312L42.8516 43.9531V43.5625L42.6953 43.0938H42.6172ZM63.4766 25.0469V25.125L64.2578 24.5L64.1016 24.4219C63.5807 24.7344 63.3724 24.9427 63.4766 25.0469ZM46.6016 32H46.6797C46.888 31.9479 46.9922 31.7396 46.9922 31.375H46.8359C46.6797 31.4792 46.6016 31.6875 46.6016 32ZM47.0703 41.375L46.7578 41.6875V41.8438H46.9922L47.1484 41.6094V41.375H47.0703ZM51.6797 29.5781H51.3672V29.8906H51.5234L51.6797 29.7344V29.5781ZM124.258 3.25L129.414 4.26562C130.299 4.26562 131.81 5.02083 133.945 6.53125H134.258C134.31 4.5 134.492 3.48438 134.805 3.48438C136.367 4.05729 137.305 4.34375 137.617 4.34375H139.18L140.43 4.26562L140.586 4.5L140.508 4.96875V14.9688C140.508 15.5417 140.326 16.0104 139.961 16.375C140.378 16.7917 140.586 17.1823 140.586 17.5469C140.586 17.9115 140.43 18.3542 140.117 18.875L140.352 20.2031C140.352 20.8281 140.195 21.1406 139.883 21.1406L137.852 20.8281H137.773L136.68 21.1406H136.523C136.315 21.1406 135.977 20.0208 135.508 17.7812C135.508 17.0521 135.195 16.401 134.57 15.8281C133.893 14.8385 133.555 14.1615 133.555 13.7969L134.023 13.6406V13.5625C133.242 12.9375 132.773 12.2344 132.617 11.4531C130.482 9.31771 128.659 8.25 127.148 8.25H126.602C126.029 8.25 123.424 8.79688 118.789 9.89062C118.372 10.2031 117.695 11.1927 116.758 12.8594C115.768 14.1615 115.273 15.4115 115.273 16.6094C115.586 19.9427 116.003 21.6094 116.523 21.6094C117.201 23.3802 118.008 24.4479 118.945 24.8125C119.102 25.0729 119.727 25.3333 120.82 25.5938C121.549 26.2708 123.086 27.1042 125.43 28.0938C125.43 28.3021 125.69 28.4323 126.211 28.4844L127.148 28.1719C127.565 28.276 127.773 28.3802 127.773 28.4844V28.5625L127.461 28.875V29.1094C128.19 29.9948 129.076 30.4375 130.117 30.4375V30.3594L128.633 29.1094V29.0312C129.102 29.0312 130.768 29.9427 133.633 31.7656C137.956 35.776 140.117 38.3281 140.117 39.4219C140.846 42.599 141.211 44.5781 141.211 45.3594C140.742 49.3177 140.299 51.2969 139.883 51.2969L138.008 54.5781C134.414 56.7656 132.305 57.8594 131.68 57.8594C125.69 56.5573 121.706 55.5156 119.727 54.7344C115.664 50.9323 113.633 48.6927 113.633 48.0156L113.32 47.7812L113.164 47.8594V48.25V52.625C113.164 52.9896 112.227 53.1719 110.352 53.1719H108.945L107.773 53.5625C107.409 53.5625 106.94 53.276 106.367 52.7031V52.625L106.758 52C107.122 43.25 107.565 38.875 108.086 38.875H108.242L109.648 39.1094C109.909 39.1094 110.169 39.0312 110.43 38.875L111.445 39.1094L111.992 38.9531H112.305C112.513 39.0573 112.982 39.8125 113.711 41.2188C115.69 43.7188 117.461 46.1146 119.023 48.4062C119.232 48.4062 119.883 49.1094 120.977 50.5156L125.82 52.625H127.227V52.9375H127.383L127.773 52.7031H127.93C128.346 53.0156 128.737 53.1719 129.102 53.1719H129.57C130.977 53.1198 131.68 52.9375 131.68 52.625V52.4688H130.117L129.18 52.3906C129.232 52.1823 131.081 51.7917 134.727 51.2188C135.56 51.2188 136.367 49.7604 137.148 46.8438C137.148 45.9062 137.383 45.2292 137.852 44.8125V44.5C136.966 41.7396 135.977 39.9427 134.883 39.1094C134.258 38.0156 131.888 36.7396 127.773 35.2812C125.065 34.2396 122.878 33.0156 121.211 31.6094C118.763 30.8802 117.357 30.0729 116.992 29.1875C116.68 28.5104 115.482 27.3906 113.398 25.8281C112.461 22.9635 111.445 20.75 110.352 19.1875C109.779 16.8958 109.492 14.474 109.492 11.9219C109.909 10.2031 111.784 7.83333 115.117 4.8125C117.044 3.77083 120.091 3.25 124.258 3.25ZM115.117 5.98438H116.055C116.471 5.98438 118.398 5.54167 121.836 4.65625C123.086 4.44792 123.711 4.23958 123.711 4.03125L123.398 3.95312C117.878 4.42188 115.117 5.09896 115.117 5.98438ZM135.742 4.96875L135.664 5.28125V5.51562C135.664 5.82812 135.872 5.98438 136.289 5.98438H137.617V5.90625C137.096 5.28125 136.471 4.96875 135.742 4.96875ZM117.461 8.875H117.617C118.138 8.875 119.362 8.40625 121.289 7.46875L123.398 6.6875V6.76562L123.164 7.23438H123.789L124.258 7.07812V6.76562L124.102 6.53125V6.0625H123.945C121.862 6.6875 120.143 7.33854 118.789 8.01562C117.904 8.17188 117.461 8.45833 117.461 8.875ZM130.664 6.6875H129.336C129.336 6.79167 130.117 7.05208 131.68 7.46875H132.07L132.227 7.39062V7.23438C132.07 6.86979 131.549 6.6875 130.664 6.6875ZM136.055 6.76562L135.898 7.07812V7.23438L135.977 7.70312H136.211L136.445 7.46875V7.07812L136.211 6.76562H136.055ZM115.508 7.85938V7.9375C115.508 8.09375 115.612 8.17188 115.82 8.17188C116.081 8.06771 116.263 7.88542 116.367 7.625V7.46875C115.898 7.46875 115.612 7.59896 115.508 7.85938ZM133.242 8.25L133.633 8.64062H134.023L134.258 8.40625V8.17188C134.258 8.01562 134.049 7.85938 133.633 7.70312C133.372 7.80729 133.242 7.98958 133.242 8.25ZM137.227 9.34375L137.461 9.5V9.57812L137.148 9.96875V10.2031C137.148 10.3073 137.357 10.4375 137.773 10.5938C137.878 11.0104 138.034 11.2448 138.242 11.2969H138.477V10.9844L138.398 10.75V10.4375H138.633L139.023 10.75H139.18L139.258 10.2812V10.125C138.893 8.66667 138.633 7.9375 138.477 7.9375H138.008C137.487 8.14583 137.227 8.61458 137.227 9.34375ZM115.039 11.2969L115.508 11.7656H115.664C116.289 11.6615 116.862 11.3229 117.383 10.75L117.148 10.5938H116.289C115.716 10.5938 115.299 10.8281 115.039 11.2969ZM111.602 10.6719L111.367 10.9062V10.9844H111.758V10.6719H111.602ZM113.711 14.3438V14.4219H113.867C114.805 13.5365 115.273 12.7552 115.273 12.0781L115.039 11.8438C114.414 11.8438 113.971 12.6771 113.711 14.3438ZM139.18 12.0781H138.789V12.2344C138.945 12.5469 139.102 12.7031 139.258 12.7031V12.3906L139.18 12.0781ZM138.398 12.625L138.164 12.8594H138.398V12.625ZM137.148 13.0156L136.836 13.25V13.3281L137.148 13.6406H137.461L137.773 13.3281V13.25L137.461 13.0156H137.148ZM138.945 13.7969L138.633 14.0312V14.5781L138.711 15.125H138.945L139.18 13.7969H138.945ZM137.305 15.125H137.148V15.2812L137.305 15.5156H137.617V15.2812L137.305 15.125ZM137.07 17.2344V18.4844L137.227 18.6406H137.305C137.721 18.6406 137.956 18.4583 138.008 18.0938C137.747 17.4688 137.617 16.9479 137.617 16.5312H137.461C137.201 16.6354 137.07 16.8698 137.07 17.2344ZM137.461 19.7344L137.227 19.9688L137.617 20.2031H137.852L137.93 19.9688L137.617 19.7344H137.461ZM113.398 23.0938V23.6406L113.711 23.9531H114.336V23.6406C113.971 23.276 113.659 23.0938 113.398 23.0938ZM114.883 25.2031H114.805V25.5938C115.898 26.375 116.628 26.7656 116.992 26.7656H117.305V26.4531C116.576 25.9323 115.768 25.5156 114.883 25.2031ZM124.648 27.8594H123.945C123.997 28.0677 124.206 28.1719 124.57 28.1719H124.883V28.0938L124.648 27.8594ZM125.43 29.0312L125.195 29.1875C125.404 29.5 126.263 29.9948 127.773 30.6719V30.3594C127.044 29.6823 126.263 29.2396 125.43 29.0312ZM127.227 33.7188H126.836V34.1094C127.513 34.4219 128.346 34.6042 129.336 34.6562C129.336 34.8646 129.518 34.9688 129.883 34.9688H130.508V34.8906C130.508 34.4219 129.414 34.0312 127.227 33.7188ZM132.461 35.8281H132.227V36.0625L132.461 36.2969H132.617V36.0625L132.461 35.8281ZM108.945 43.875H108.633C108.372 44.6562 108.242 45.6458 108.242 46.8438L108.398 47.8594H108.477C108.945 47.8594 109.18 47.651 109.18 47.2344C109.023 46.0365 108.945 44.9167 108.945 43.875ZM110.586 46.1406C110.326 47.026 110.039 47.599 109.727 47.8594L110.039 48.7188V50.75V51.2188C110.039 51.5833 110.143 51.7656 110.352 51.7656H110.82L111.055 51.5312V51.2188C111.055 47.8333 110.898 46.1406 110.586 46.1406ZM114.883 48.0938H114.805V48.25C115.013 49.0833 115.404 49.5 115.977 49.5V49.3438C115.612 48.5104 115.247 48.0938 114.883 48.0938ZM108.477 49.8125L108.633 49.9688H108.711C108.867 49.9688 108.997 49.4479 109.102 48.4062L108.945 48.25C108.737 48.25 108.581 48.7708 108.477 49.8125ZM117.617 48.7969H117.461V48.875C117.878 49.6562 118.294 50.0469 118.711 50.0469V49.8125C118.294 49.3438 117.93 49.0052 117.617 48.7969ZM137.852 50.125L137.461 50.5156L137.773 50.8281H138.164L138.477 50.5156V50.3594L138.242 50.125H137.852ZM122.227 51.9219V52C122.331 52.2604 122.513 52.3906 122.773 52.3906C122.669 52.0781 122.487 51.9219 122.227 51.9219ZM118.477 52.0781L117.93 52V52.0781C118.451 53.224 119.753 54.1094 121.836 54.7344C123.555 55.3594 125.977 56.0104 129.102 56.6875C129.727 57.1042 130.273 57.3385 130.742 57.3906H131.445C132.747 57.026 133.398 56.5573 133.398 55.9844L126.367 55.4375C122.253 54.1354 119.622 53.0156 118.477 52.0781ZM132.227 54.3438V54.5L132.461 54.6562H132.852C134.727 54.6562 135.768 54.3958 135.977 53.875L135.664 53.7188H135.195C134.622 53.7188 133.633 53.9271 132.227 54.3438ZM129.883 56.2969V55.9844H130.039C130.404 55.9844 130.586 56.0885 130.586 56.2969H130.352H129.883ZM166.992 13.7969V13.6406C167.461 14.1094 168.503 14.474 170.117 14.7344C171.159 14.7344 173.346 15.9323 176.68 18.3281L177.695 18.7188H178.086L179.492 19.4219C180.898 20.4115 181.706 21.1667 181.914 21.6875V21.8438C181.914 22.0521 181.602 22.4427 180.977 23.0156C180.82 23.901 179.727 25.6198 177.695 28.1719V28.4844L177.773 29.2656C177.044 29.2656 176.315 29.4479 175.586 29.8125C175.273 29.8125 174.987 29.4479 174.727 28.7188C173.216 27.7812 172.461 27.026 172.461 26.4531L173.398 23.9531C173.398 22.9635 171.68 22.2604 168.242 21.8438L163.164 21.5312C161.393 21.5312 158.971 22.2344 155.898 23.6406C154.232 24.526 152.93 26.349 151.992 29.1094C151.263 31.5573 150.664 33.0156 150.195 33.4844L149.414 32.9375C149.049 33.3021 148.867 33.901 148.867 34.7344L149.883 34.1875C150.039 34.1875 150.143 34.3698 150.195 34.7344L149.648 38.3281C149.857 38.3802 150.352 39.9167 151.133 42.9375L150.898 43.4062V43.7188C151.159 43.9792 151.367 44.8385 151.523 46.2969C151.992 47.8594 153.477 49.2656 155.977 50.5156L160.117 53.5625C164.753 53.5625 168.841 52.5469 172.383 50.5156C175.924 47.4427 177.695 45.4375 177.695 44.5L177.383 43.3281V43.1719C177.487 42.8594 178.633 41.6094 180.82 39.4219C180.924 39.4219 181.341 39.7865 182.07 40.5156V40.8281L181.758 40.9062L181.133 40.8281H181.055V41.1406C183.034 41.2969 184.023 41.7917 184.023 42.625C184.857 43.7188 185.716 45.3854 186.602 47.625C186.914 47.625 187.174 48.25 187.383 49.5C188.008 49.7604 188.372 50.0469 188.477 50.3594C188.477 50.8281 188.164 51.0885 187.539 51.1406C186.341 51.5052 185.221 52.3646 184.18 53.7188C182.357 51.8958 181.393 50.9844 181.289 50.9844L176.992 53.7188C175.586 54.4479 174.258 55.3073 173.008 56.2969L164.961 58.875L163.711 59.0312C162.044 59.0312 159.57 58.5104 156.289 57.4688C152.747 55.9583 150.82 54.7865 150.508 53.9531C146.133 48.6927 143.945 44.6302 143.945 41.7656L143.711 39.1094C144.128 37.1302 144.336 34.8906 144.336 32.3906L146.445 27.3125C146.445 25.8542 147.435 23.9792 149.414 21.6875C150.404 19.3438 153.242 17.1302 157.93 15.0469C159.701 14.474 162.721 14.0573 166.992 13.7969ZM153.867 18.0156V18.3281L157.93 16.7656L160.508 15.5938C161.497 15.3854 161.992 15.2031 161.992 15.0469V14.9688C159.753 14.9688 157.07 15.9844 153.945 18.0156H153.867ZM169.258 15.5156L168.789 15.4375L168.633 15.5156V15.75L168.867 15.9062H169.258V15.5156ZM161.445 17.9375V18.3281L162.305 18.4844C165.378 18.4844 167.096 18.224 167.461 17.7031C167.461 17.5469 167.044 17.4427 166.211 17.3906C163.919 17.4427 162.331 17.625 161.445 17.9375ZM169.102 17.9375H168.164V18.0156C168.164 18.3281 168.685 18.5365 169.727 18.6406L169.961 18.3281C169.961 18.0677 169.674 17.9375 169.102 17.9375ZM170.82 18.6406H170.664V18.7188L170.898 19.1094H171.133V18.875L170.82 18.6406ZM158.398 19.4219V19.7344H158.711C159.909 19.474 160.508 19.2135 160.508 18.9531L160.273 18.7188H160.117C158.971 19.0833 158.398 19.3177 158.398 19.4219ZM152.773 18.875L152.383 19.1875V19.4219H152.617L153.086 18.9531V18.875H152.773ZM162.773 20.2812L163.555 20.4375H163.633C165.299 20.3854 166.185 20.2031 166.289 19.8906V19.6562H165.43C163.659 19.6562 162.773 19.8646 162.773 20.2812ZM168.555 19.7344H167.852V19.8906C167.852 20.0469 168.555 20.1771 169.961 20.2812V20.125L168.555 19.7344ZM175.195 20.75H174.805V21.0625H174.961L175.195 20.8281V20.75ZM155.898 20.9062L155.586 21.375V21.4531H155.898L156.133 21.1406L155.898 20.9062ZM179.023 22.625V22.7031L179.492 22.8594H179.57L179.961 22.3906V22L179.805 21.8438C179.284 21.8438 179.023 22.1042 179.023 22.625ZM151.68 23.4062H151.836C152.565 22.9896 152.93 22.5729 152.93 22.1562C152.305 22.1562 151.888 22.5729 151.68 23.4062ZM149.18 26.4531V26.5312L149.414 26.7656H149.492C150.065 26.2969 150.352 25.8542 150.352 25.4375V25.2812H150.195C149.518 25.6458 149.18 26.0365 149.18 26.4531ZM149.648 28.1719H149.414L148.008 30.5938V30.9844L148.242 31.2969H148.477C148.685 31.2969 149.076 30.4375 149.648 28.7188V28.1719ZM146.445 38.3281V38.5625C146.445 39.0833 146.68 39.3958 147.148 39.5C147.513 39.5 147.565 38.6667 147.305 37L147.227 36.6094H146.992C146.836 36.6094 146.654 37.1823 146.445 38.3281ZM148.867 39.7344C148.555 39.9948 148.398 40.4115 148.398 40.9844C148.398 41.2448 148.633 41.7656 149.102 42.5469C149.414 43.4323 149.805 43.875 150.273 43.875V43.6406C150.273 42.8594 149.805 41.5573 148.867 39.7344ZM183.086 43.3281H182.773V43.6406C182.773 44.2656 183.763 46.2708 185.742 49.6562L186.211 49.7344L186.445 49.5C185.612 48.0938 184.857 46.4792 184.18 44.6562L183.086 43.3281ZM181.211 44.8906V45.0469C181.576 46.1927 181.914 46.7656 182.227 46.7656L182.383 46.4531V46.1406C182.174 45.3073 181.784 44.8906 181.211 44.8906ZM148.789 45.9062H148.555V46.2969C148.763 46.8177 149.102 47.0781 149.57 47.0781C149.57 46.6615 149.31 46.2708 148.789 45.9062ZM176.211 48.875H176.367C176.628 48.8229 176.966 48.4583 177.383 47.7812V47.5469C176.862 47.5469 176.471 47.9896 176.211 48.875ZM150.273 47.625V48.0938C150.534 48.5625 150.82 48.7969 151.133 48.7969H151.289V48.4062C151.081 47.8854 150.742 47.625 150.273 47.625ZM149.336 49.6562H148.867V49.7344C148.867 50.5156 149.701 51.349 151.367 52.2344H152.07V52.0781C152.07 51.5052 151.159 50.6979 149.336 49.6562ZM183.164 51.2969V51.7656L183.398 51.9219H183.867C184.023 51.9219 184.414 51.5573 185.039 50.8281V50.75C185.039 50.5938 184.596 50.3854 183.711 50.125C183.346 50.125 183.164 50.5156 183.164 51.2969ZM171.367 52.7031H171.445L171.602 52.7812C172.904 52.2604 173.555 51.7135 173.555 51.1406C172.096 51.8177 171.367 52.3385 171.367 52.7031ZM151.758 53.4062C152.227 54.1875 154.102 55.3594 157.383 56.9219L159.023 57.3906H159.18V57.1562C155.846 55.75 153.815 54.526 153.086 53.4844C152.826 53.276 152.565 53.1719 152.305 53.1719H151.914C151.81 53.1719 151.758 53.25 151.758 53.4062ZM154.727 53.1719H154.492C154.492 53.5885 155.43 54.1094 157.305 54.7344L161.133 55.9844H161.914L162.227 55.6719V55.4375H162.148C161.107 55.4375 160.143 55.0729 159.258 54.3438L158.008 53.875H157.852L157.383 54.3438H157.305C156.94 54.3438 156.081 53.9531 154.727 53.1719ZM170.273 55.6719H170.43C171.576 55.3594 172.487 54.8125 173.164 54.0312V53.9531H173.008C172.487 53.9531 171.576 54.526 170.273 55.6719ZM168.086 54.5V54.5781H168.242C168.711 54.5781 168.997 54.4479 169.102 54.1875V54.0312C168.424 54.0833 168.086 54.2396 168.086 54.5ZM163.711 57.9375V58.0156C163.711 58.276 164.258 58.4583 165.352 58.5625V58.25L165.273 58.0938L165.586 57.8594L165.273 57.4688H164.805C164.076 57.5729 163.711 57.7292 163.711 57.9375ZM200.195 14.6562L209.883 14.4219C210.716 14.4219 212.461 14.7865 215.117 15.5156C218.138 18.3802 219.935 20.6198 220.508 22.2344C221.654 23.4323 222.565 25.8021 223.242 29.3438C224.076 30.1771 224.492 32.026 224.492 34.8906L224.57 36.8438L224.258 44.5781C224.258 46.1406 225.221 48.0677 227.148 50.3594C228.919 52.0781 230.065 52.9375 230.586 52.9375V53.0938C230.586 53.7188 229.674 54.7083 227.852 56.0625C226.497 57.4167 225.638 58.0938 225.273 58.0938H225.195C224.362 57.9896 222.253 56.4531 218.867 53.4844C212.721 55.8802 209.622 57.1042 209.57 57.1562C207.539 57.7812 205.273 58.0938 202.773 58.0938H202.383C199.57 57.625 197.174 56.5312 195.195 54.8125C194.831 54.5 194.076 53.1979 192.93 50.9062C191.992 49.7604 191.523 48.3542 191.523 46.6875V44.4219C191.523 42.9635 191.914 41.6094 192.695 40.3594C193.372 38.224 194.544 36.1927 196.211 34.2656C197.044 33.276 197.878 32.651 198.711 32.3906C201.419 30.9323 204.102 30.2031 206.758 30.2031L210.273 30.125H210.742C212.721 30.125 214.128 30.4115 214.961 30.9844H215.43C215.69 30.9844 215.82 30.8802 215.82 30.6719C215.247 28.224 214.31 25.8802 213.008 23.6406C211.862 21.7135 209.727 20.75 206.602 20.75L203.398 20.2812C200.638 20.8542 199.258 21.4271 199.258 22C198.164 23.4062 197.513 25.151 197.305 27.2344C197.201 27.4948 196.263 27.625 194.492 27.625L194.023 27.7812C193.815 27.7812 193.555 28.224 193.242 29.1094C191.784 28.901 191.055 28.5885 191.055 28.1719C191.159 27.8594 191.341 25.9844 191.602 22.5469C192.435 20.151 194.414 17.9375 197.539 15.9062C198.997 15.0729 199.883 14.6562 200.195 14.6562ZM208.945 15.9844L208.789 16.2188L209.023 16.5312H209.492L209.57 16.375L209.336 15.9844H208.945ZM214.883 16.6094H214.727V16.7656C215.143 17.1823 215.508 17.3906 215.82 17.3906H215.898V17.2344C215.482 16.8177 215.143 16.6094 214.883 16.6094ZM202.383 17V17.2344C202.435 17.3906 202.695 17.4688 203.164 17.4688C203.633 17.4688 204.284 17.3125 205.117 17V16.6875H204.805C203.659 16.6875 202.852 16.7917 202.383 17ZM195.352 19.5V19.6562H195.43C195.898 19.6562 196.602 19.1615 197.539 18.1719V17.9375H197.461C196.94 17.9375 196.237 18.4583 195.352 19.5ZM206.211 18.9531L205.82 19.2656L206.055 19.6562H207.07L207.305 19.4219L206.836 18.9531H206.211ZM194.727 25.2812L194.492 25.4375V26.6094H194.57C194.779 26.5573 194.883 26.375 194.883 26.0625V25.4375L194.727 25.2812ZM223.086 31.5312H223.008V31.6875C223.112 32.1042 223.216 32.3125 223.32 32.3125L223.398 31.9219C223.294 31.6615 223.19 31.5312 223.086 31.5312ZM221.289 34.2656L221.055 34.4219V34.6562C221.263 35.4375 221.471 35.8281 221.68 35.8281H221.836C221.836 35.151 221.68 34.6302 221.367 34.2656H221.289ZM198.398 34.7344L197.539 35.125V35.5156H197.695C198.06 35.5156 198.32 35.3073 198.477 34.8906V34.7344H198.398ZM197.539 42.1562C197.904 45.2812 198.346 46.8438 198.867 46.8438L199.648 47.8594V47.9375L198.945 47.8594V48.0938C199.935 49.4479 201.966 50.6979 205.039 51.8438C205.404 52.0521 205.924 52.2083 206.602 52.3125C207.539 52.3125 211.133 50.776 217.383 47.7031C217.799 47.4427 218.008 47.1562 218.008 46.8438V46.4531C217.539 44.3177 217.148 41.8177 216.836 38.9531L216.68 38.875C216.68 38.3021 216.107 37.8333 214.961 37.4688C211.107 36.375 208.477 35.8281 207.07 35.8281C203.112 36.7135 200.404 38.0417 198.945 39.8125C198.008 40.75 197.539 41.5312 197.539 42.1562ZM221.055 37.0781L220.82 36.9219V37.1562H221.055V37.0781ZM221.367 38.5625H220.898V38.875L221.133 39.1094L221.367 38.875V38.5625ZM218.867 40.5156L218.633 40.75L218.867 41.0625L219.18 40.9844V40.75L218.945 40.5156H218.867ZM221.68 40.75H221.445V40.8281C221.549 42.8073 221.758 43.7969 222.07 43.7969L222.227 43.6406V43.4844C222.227 42.3906 222.044 41.4792 221.68 40.75ZM218.633 43.25L218.555 43.3281V43.7969L218.789 44.1094H218.867L219.18 43.7969V43.3281L218.945 43.25H218.633ZM225.273 50.5938H225.039V51.0625C225.247 51.7396 225.482 52.0781 225.742 52.0781H225.977V51.8438C225.768 51.0104 225.534 50.5938 225.273 50.5938ZM196.523 50.8281L196.367 50.9844V51.0625L196.523 51.2188H196.914V51.0625L196.68 50.8281H196.523ZM222.852 51.8438L222.617 52.0781C222.773 52.4427 222.982 52.6771 223.242 52.7812H223.32L223.633 52.4688V52.3125L223.242 51.8438H222.852ZM211.523 52.9375V53.0938H211.836C212.565 53.0938 213.529 52.7812 214.727 52.1562V52.0781H214.414C212.643 52.2865 211.68 52.5729 211.523 52.9375ZM224.57 53.1719L224.414 53.4844V53.6406L224.727 53.9531H225.039L225.273 53.7969V53.6406L224.883 53.1719H224.57ZM205.273 53.7969L205.039 54.0312C205.143 54.2917 205.352 54.4219 205.664 54.4219C206.237 54.3177 206.523 54.1875 206.523 54.0312V53.9531L206.289 53.7969H205.273ZM196.758 54.8906L196.523 55.2031C196.732 55.6719 198.034 56.2708 200.43 57C201.211 57.3646 202.253 57.5469 203.555 57.5469V57.4688C203.555 57.3125 202.565 57.026 200.586 56.6094C199.44 56.2969 198.242 55.724 196.992 54.8906H196.758ZM244.805 17.2344C245.378 17.3385 245.664 17.4167 245.664 17.4688L245.352 18.0156V18.0938H245.508L249.492 18.0156C254.023 18.0156 257.044 19.1615 258.555 21.4531C259.753 23.0156 260.404 23.9271 260.508 24.1875L260.82 24.2656C261.341 24.2656 264.284 22.8594 269.648 20.0469C270.378 19.6823 270.977 19.5 271.445 19.5C273.581 19.5 275.794 20.3073 278.086 21.9219C282.513 25.4115 284.727 28.3802 284.727 30.8281C285.195 31.8177 286.003 37.1562 287.148 46.8438V48.9531C287.148 49.4219 287.279 49.7083 287.539 49.8125H287.852C288.268 49.8125 289.102 49.6042 290.352 49.1875C291.185 49.1875 291.602 50.724 291.602 53.7969C291.706 55.3594 291.758 56.5312 291.758 57.3125H290.664C288.477 57.6771 286.549 57.8594 284.883 57.8594L282.383 57.5469L277.852 57.7031H277.07C276.966 57.7031 276.914 57.4948 276.914 57.0781L275.898 56.0625V55.9844L276.133 55.2031V55.0469L275.742 52.9375V51.9219C275.742 51.2448 276.263 50.9062 277.305 50.9062C279.18 51.1146 279.961 50.4115 279.648 48.7969C279.596 44.7344 279.753 41.6875 280.117 39.6562V39.5L279.961 34.8125C279.961 33.9792 279.258 33.0156 277.852 31.9219L277.227 31.7656H276.68L276.055 32.0781C275.951 32.0781 275.898 31.8438 275.898 31.375C274.701 29.8125 272.773 29.0312 270.117 29.0312C266.732 29.3438 264.701 30.3594 264.023 32.0781C263.919 32.5469 263.815 33.7708 263.711 35.75L263.867 37.5469V43.1719L263.789 45.4375C263.789 47.7812 264.44 49.1354 265.742 49.5C266.315 49.6042 266.602 49.7865 266.602 50.0469C266.029 52.651 265.664 54.0833 265.508 54.3438L263.555 54.7344L256.914 54.1875L256.133 54.3438C255.247 54.3438 254.805 53.0156 254.805 50.3594V50.0469C254.805 49.7344 255.586 49.3438 257.148 48.875C257.565 48.875 257.773 48.6667 257.773 48.25C257.513 46.9479 257.383 45.4896 257.383 43.875L257.539 35.2812C257.227 34.1354 257.07 33.224 257.07 32.5469C257.122 31.2448 257.305 30.5938 257.617 30.5938L258.32 30.9844H258.398V30.8281C258.398 29.6823 256.628 28.0417 253.086 25.9062C252.148 25.5417 251.211 25.3594 250.273 25.3594C248.815 25.3594 247.174 26.0104 245.352 27.3125L245.273 27.7031V34.0312L245.508 50.3594L245.82 50.6719H246.133C246.289 50.6719 246.393 50.4896 246.445 50.125H246.602C248.008 50.125 248.867 50.4896 249.18 51.2188V51.8438L249.258 53.7188C249.362 55.8542 248.815 56.9219 247.617 56.9219C247.305 57.026 245.898 57.1302 243.398 57.2344L233.242 56.6094C232.721 56.6094 232.227 55.0208 231.758 51.8438V51.7656C231.758 51.2969 232.826 50.75 234.961 50.125C234.961 49.7604 236.003 49.4219 238.086 49.1094C238.451 49.0573 238.633 48.7969 238.633 48.3281L239.18 30.0469L239.336 25.75C239.336 25.2812 238.841 25.0469 237.852 25.0469C236.862 25.0469 235.638 25.1771 234.18 25.4375C233.294 24.9688 232.852 24.474 232.852 23.9531C233.268 23.6927 233.477 23.276 233.477 22.7031V22.0781C233.216 20.724 232.904 20.0469 232.539 20.0469L232.461 19.9688V19.8125C232.773 19.6042 233.138 19.1094 233.555 18.3281C237.044 17.8594 240.794 17.4948 244.805 17.2344ZM241.445 24.3438V28.25C241.445 29.0312 241.289 29.8125 240.977 30.5938L241.523 31.375L241.367 32.625V33.4062L241.523 33.5625H241.602C242.018 33.5625 242.253 30.724 242.305 25.0469V24.9688C242.305 24.3438 242.122 23.9271 241.758 23.7188C241.549 23.7708 241.445 23.9792 241.445 24.3438ZM234.258 22.8594C234.258 23.3802 234.727 23.6406 235.664 23.6406C236.862 23.6406 238.086 23.25 239.336 22.4688V22.2344H239.023C235.846 22.2344 234.258 22.4427 234.258 22.8594ZM247.227 21.9219V22L251.289 21.5312C252.435 21.5312 253.607 22.0521 254.805 23.0938H255.039V22.7812C254.727 21.6875 254.18 21.1406 253.398 21.1406H252.695C249.102 21.1406 247.279 21.401 247.227 21.9219ZM273.242 20.5938C272.93 20.75 272.773 20.8802 272.773 20.9844C272.773 21.0885 273.216 21.2708 274.102 21.5312C274.57 22.2083 275.143 22.5469 275.82 22.5469H277.305V22.3125C277.305 21.7917 275.977 21.2188 273.32 20.5938H273.242ZM236.758 53.0156L236.523 53.25C236.523 53.9271 237.435 54.0573 239.258 53.6406C239.466 54.0052 239.753 54.1875 240.117 54.1875C241.419 54.1354 242.773 54.0052 244.18 53.7969V53.4844L242.148 53.4062C240.846 53.5104 239.284 53.4583 237.461 53.25L237.07 53.0156H236.758ZM249.18 23.0938C249.18 23.25 249.909 23.5104 251.367 23.875C252.357 24.3958 253.216 24.6562 253.945 24.6562H254.023L254.18 24.4219C252.982 23.3802 251.654 22.8594 250.195 22.8594H249.727C249.362 22.9115 249.18 22.9896 249.18 23.0938ZM274.805 27.0781L274.57 27.3125C275.716 28.5625 276.784 29.1875 277.773 29.1875L278.008 29.0312V28.6406C277.643 28.1719 277.07 27.651 276.289 27.0781H274.805ZM271.367 24.2656V24.4219C271.523 24.6823 271.68 24.8125 271.836 24.8125C273.971 24.8125 275.117 24.6823 275.273 24.4219C275.117 23.9531 274.284 23.7188 272.773 23.7188H272.617C271.836 23.7188 271.419 23.901 271.367 24.2656ZM281.914 38.7188H281.445L281.289 39.0312L281.523 42V42.2344L281.758 42.5469H281.914L282.305 42.1562V39.1094L281.914 38.7188ZM233.945 51.4531H233.711C233.711 51.9219 233.503 52.3646 233.086 52.7812C233.451 54.5521 233.841 55.4375 234.258 55.4375H234.492L234.023 51.5312L233.945 51.4531ZM259.023 37.7812L258.867 38.4844V41.375L259.023 42.7812H259.258C259.466 42.3125 259.57 41.6615 259.57 40.8281C259.466 38.7969 259.284 37.7812 259.023 37.7812ZM245.039 19.7344V19.8125L245.352 19.9688L250.43 19.0312V18.875H248.086C246.055 18.875 245.039 19.1615 245.039 19.7344ZM261.445 25.5156V26.2188L261.758 26.4531C262.383 26.4531 263.19 25.9844 264.18 25.0469H262.227C261.862 25.0469 261.602 25.2031 261.445 25.5156ZM243.711 27.3125H243.555C243.451 28.1458 243.398 29.0312 243.398 29.9688V30.9844L243.555 31.375C243.919 31.375 244.102 30.6719 244.102 29.2656V28.6406C244.102 27.7552 243.971 27.3125 243.711 27.3125ZM278.945 25.5156H278.711V25.9844C278.919 26.6094 279.414 27.2344 280.195 27.8594V28.0938H280.742V27.9375C280.742 27.3646 280.143 26.5573 278.945 25.5156ZM266.836 23.0938V23.25H266.914C267.227 23.25 268.112 22.651 269.57 21.4531V21.1406C267.747 21.7135 266.836 22.3646 266.836 23.0938ZM282.07 52.7031V52.9375H283.086C284.596 52.9375 285.352 52.7812 285.352 52.4688L285.039 52.3125H284.883C283.008 52.3125 282.07 52.4427 282.07 52.7031ZM278.945 53.875V54.0312H280.977C281.497 54.0312 281.81 53.901 281.914 53.6406C281.862 53.4323 281.654 53.3281 281.289 53.3281H280.117C279.857 53.3281 279.466 53.5104 278.945 53.875ZM281.68 33.4844L282.617 34.8906H282.93V34.3438V33.7188C282.93 33.4062 282.852 33.1979 282.695 33.0938H281.992C281.888 33.0938 281.784 33.224 281.68 33.4844ZM241.445 48.25H239.805C239.857 49.0833 239.961 49.5 240.117 49.5H240.352C241.029 49.5 241.393 49.0833 241.445 48.25ZM235.977 20.5938L234.492 20.75V20.9844L234.727 21.1406C236.862 21.1406 237.93 21.0365 237.93 20.8281L237.695 20.5938H235.977ZM235.117 51.0625L235.195 52.2344H235.352C235.716 51.7135 236.237 51.3229 236.914 51.0625V50.8281L236.211 50.6719H235.43C235.221 50.6719 235.117 50.8021 235.117 51.0625ZM245.352 53.1719L245.039 53.4062C245.039 53.875 245.534 54.1354 246.523 54.1875L246.914 53.875V53.5625C246.914 53.3021 246.393 53.1719 245.352 53.1719ZM244.18 49.8906L242.617 48.5625V48.7188C242.617 49.7604 242.93 50.2812 243.555 50.2812H244.023C244.128 50.2812 244.18 50.151 244.18 49.8906ZM256.992 24.4219H256.914V24.5C256.914 25.0208 257.383 25.4896 258.32 25.9062V25.0469C258.32 24.9427 257.878 24.7344 256.992 24.4219ZM280.508 30.0469H280.352V30.2031C280.768 31.6094 281.159 32.3125 281.523 32.3125V32.1562C281.523 31.4271 281.185 30.724 280.508 30.0469ZM253.398 19.7344H252.93V19.9688C254.128 20.2292 254.883 20.3594 255.195 20.3594H255.352V20.2031C255.352 19.8906 254.701 19.7344 253.398 19.7344ZM256.758 22.5469H256.602V22.8594C257.07 23.5885 257.487 24.0573 257.852 24.2656H258.086V24.1875C257.826 23.5625 257.383 23.0156 256.758 22.5469ZM246.133 52.4688L244.102 52.625V52.9375H245.586L246.758 52.7812V52.4688H246.133ZM264.648 24.0312L264.727 24.1875H265.195C265.872 24.1354 266.211 23.901 266.211 23.4844L265.977 23.4062C265.195 23.5625 264.753 23.7708 264.648 24.0312ZM284.336 49.9688V50.125L284.57 50.3594H284.805L285.117 49.9688V49.5781L284.961 49.2656H284.648C284.44 49.4219 284.336 49.6562 284.336 49.9688ZM239.336 51.6094L238.711 51.7656V52L239.336 52.0781H239.961L240.43 52V51.7656L239.961 51.6094H239.336ZM286.445 52.625L286.523 52.7031H286.836C287.096 52.7031 287.279 52.625 287.383 52.4688V52.3906C287.383 51.974 287.305 51.7656 287.148 51.7656C286.94 51.7656 286.706 52.0521 286.445 52.625ZM237.617 18.875L237.852 19.1875C238.893 19.0833 239.414 18.9271 239.414 18.7188L239.023 18.6406C238.086 18.6927 237.617 18.7708 237.617 18.875ZM289.023 50.9844L288.711 51.2188V52.1562L289.023 52.4688C289.18 52.4688 289.258 52.0521 289.258 51.2188L289.18 50.9844H289.023ZM244.727 55.4375V55.5938L244.961 55.75C245.43 55.5417 245.794 55.2812 246.055 54.9688V54.8125C245.586 54.8125 245.143 55.0208 244.727 55.4375ZM261.523 29.9688L261.445 30.2031C261.549 30.6198 261.654 30.8281 261.758 30.8281H261.836L262.305 30.4375V30.2031C262.253 30.0469 261.992 29.9688 261.523 29.9688ZM244.961 24.1875V24.3438H245.273C245.951 24.2917 246.289 24.1615 246.289 23.9531V23.7188H245.664C245.195 23.8229 244.961 23.9792 244.961 24.1875ZM261.289 49.2656L260.977 49.6562L261.211 49.8906H261.758L262.07 49.5781V49.5L261.836 49.2656H261.289ZM272.93 21.7656H272.461V22C272.461 22.1562 272.721 22.2344 273.242 22.2344H273.555L273.711 22.0781C273.659 21.8698 273.398 21.7656 272.93 21.7656ZM243.711 33.4062L243.555 33.5625V34.0312L243.867 34.3438H244.023L244.18 34.1875V33.7969L243.789 33.4062H243.711ZM243.711 18.0938L243.555 18.3281V18.5625L243.789 18.7969C244.154 18.7969 244.336 18.6146 244.336 18.25L244.258 18.0938H243.711ZM255.664 22.9375L255.508 23.0938C255.508 23.6146 255.742 23.875 256.211 23.875V23.7188C256.211 23.3542 256.029 23.0938 255.664 22.9375ZM259.258 28.4062H259.102C259.102 28.8229 259.31 29.0312 259.727 29.0312H259.883V28.7188C259.831 28.5104 259.622 28.4062 259.258 28.4062ZM259.57 52.625L259.336 52.9375V53.0938L259.805 53.1719L260.273 53.0938V52.9375L260.039 52.625H259.57ZM247.461 51.0625H246.914V51.5312L247.461 51.6094L247.695 51.2969L247.461 51.0625ZM235.664 53.6406H235.508V54.1875L235.664 54.4219H235.898V53.875L235.664 53.6406ZM281.758 45.4375L281.523 45.6719V45.9844L281.68 46.1406H281.914V45.4375H281.758ZM243.555 19.5781L243.398 19.8125V19.9688L243.555 20.125H243.711L244.023 19.9688L243.867 19.5781H243.555ZM282.07 47.5469L281.758 47.9375V48.0156L282.07 48.3281L282.305 48.0156V47.8594L282.07 47.5469ZM245.273 21.9219L244.961 21.7656L244.805 22.0781L244.961 22.2344H245.039L245.273 22.0781V21.9219ZM261.602 47.625L261.445 47.8594V48.0938L261.758 48.1719L261.836 47.8594L261.758 47.625H261.602ZM241.602 34.0312H241.523V34.3438L241.758 34.5781H241.836V34.1875L241.602 34.0312ZM240.977 21.5312L240.82 21.7656V21.9219H240.977L241.289 21.6875V21.5312H240.977ZM243.711 53.0156H243.867V52.9375C243.815 52.9375 243.763 52.9635 243.711 53.0156ZM296.758 0.4375L296.836 0.515625V0.59375L296.602 0.828125C296.654 1.03646 296.862 1.14062 297.227 1.14062H297.383L297.539 0.90625L297.227 0.515625L297.383 0.4375H300.43C302.253 0.4375 303.164 0.984375 303.164 2.07812L303.398 2.39062H303.633L303.867 2.23438V2.07812L303.633 1.45312L303.711 1.29688H303.867C305.169 1.29688 305.82 2.70312 305.82 5.51562C305.82 11.8177 306.185 16.4792 306.914 19.5H307.227L312.07 19.2656C318.008 19.6302 320.977 20.151 320.977 20.8281C321.185 20.8281 322.201 21.6354 324.023 23.25C326.992 25.75 328.893 28.1979 329.727 30.5938C330.664 31.6354 331.133 34.474 331.133 39.1094L331.211 41.4531C329.648 44.6823 328.867 46.6094 328.867 47.2344C328.867 49.1094 326.784 51.5833 322.617 54.6562C322.044 55.9583 318.867 56.6354 313.086 56.6875C310.534 56.2188 308.763 55.9844 307.773 55.9844H305.977C305.091 55.9844 304.648 56.349 304.648 57.0781L303.008 59.1875C302.122 59.4479 301.419 59.5781 300.898 59.5781C300.273 59.5781 298.997 59.0833 297.07 58.0938V57.8594C297.435 57.4427 297.617 57.026 297.617 56.6094V56.2969L297.383 54.8906L297.539 53.7969V52.3906L297.227 50.8281C297.852 47.4427 298.164 45.151 298.164 43.9531L298.398 43.1719L298.242 42.1562L298.945 36.6094V36.2969C298.945 34.9427 298.607 30.724 297.93 23.6406V23.4844L297.773 23.4062L297.93 22.8594V22.5469C298.138 19.3698 298.242 16.4531 298.242 13.7969V7.9375L298.164 7.46875H298.008C296.029 8.51042 294.596 9.03125 293.711 9.03125C293.086 9.03125 292.695 7.625 292.539 4.8125C292.539 4.60417 292.695 4.31771 293.008 3.95312V3.71875H292.852L292.617 3.79688L292.539 3.71875C292.539 1.73958 292.747 0.75 293.164 0.75C293.737 0.541667 294.935 0.4375 296.758 0.4375ZM303.242 0.515625H303.633V0.75L303.242 0.828125L303.164 0.75V0.59375L303.242 0.515625ZM298.945 1.76562H298.711V1.84375H298.945V1.76562ZM300.43 1.76562L300.195 2V2.07812H300.742V1.76562H300.43ZM294.023 2H293.164V2.07812C293.164 2.23438 293.711 2.44271 294.805 2.70312C295.898 2.65104 296.445 2.52083 296.445 2.3125V2.23438C295.82 2.07812 295.013 2 294.023 2ZM301.445 3.01562L301.055 3.40625V4.65625L301.289 4.8125C301.706 4.55208 301.914 4.13542 301.914 3.5625C301.914 3.25 301.836 3.06771 301.68 3.01562H301.445ZM298.477 4.5L298.789 4.73438H299.648L299.961 4.34375V3.95312L299.648 3.71875C298.867 3.71875 298.477 3.97917 298.477 4.5ZM294.492 3.79688H294.336L294.258 4.26562V4.96875C294.258 5.17708 294.518 5.30729 295.039 5.35938C295.768 5.35938 296.185 5.125 296.289 4.65625C295.56 4.08333 294.961 3.79688 294.492 3.79688ZM297.383 4.03125H296.758V4.1875L296.992 4.5H297.617V4.26562L297.383 4.03125ZM301.133 10.3594C301.289 11.5052 301.497 12.0781 301.758 12.0781H301.836V11.9219C301.732 10.724 301.549 10.125 301.289 10.125C301.185 10.125 301.133 10.2031 301.133 10.3594ZM316.914 20.8281H316.289V20.9844C316.445 21.2969 316.758 21.4531 317.227 21.4531H317.305V21.2188L316.914 20.8281ZM310.586 21.6875L310.82 21.9219H311.289L311.992 21.6875V21.2969L311.602 21.2188C311.185 21.2188 310.846 21.375 310.586 21.6875ZM307.07 23.9531V24.2656H307.227C308.529 24.0573 309.18 23.849 309.18 23.6406V23.4062H309.023C308.451 23.4062 307.799 23.5885 307.07 23.9531ZM319.336 23.6406H319.023C319.023 24.1615 319.779 24.6302 321.289 25.0469C322.331 26.4531 323.086 27.1562 323.555 27.1562V27.0781C323.242 25.9844 322.773 25.2292 322.148 24.8125C320.742 24.0312 319.805 23.6406 319.336 23.6406ZM304.805 39.1875C304.805 40.4375 304.857 41.6354 304.961 42.7812L304.883 44.7344V48.25C304.883 48.9271 306.107 49.6302 308.555 50.3594C309.128 50.5677 310.117 50.6719 311.523 50.6719C314.128 50.6719 317.383 49.8385 321.289 48.1719C322.539 47.1823 323.945 45.099 325.508 41.9219L325.977 39.9688C325.977 37.3125 325.169 34.526 323.555 31.6094C323.19 29.9948 322.331 28.5625 320.977 27.3125L317.461 24.8125C313.815 24.8125 310.039 25.5938 306.133 27.1562C305.716 27.1562 305.43 29.0052 305.273 32.7031C304.961 34.526 304.805 36.6875 304.805 39.1875ZM329.023 31.0625H328.867V31.375C328.867 31.7396 329.049 31.9219 329.414 31.9219H329.492V31.8438C329.492 31.4792 329.336 31.2188 329.023 31.0625ZM326.367 33.0938H326.133V33.3281L326.367 33.4844H326.523V33.3281L326.367 33.0938ZM326.914 49.5V49.5781C327.643 49.5781 328.164 48.4062 328.477 46.0625H327.93C327.721 46.0625 327.435 47.026 327.07 48.9531C326.966 48.9531 326.914 49.1354 326.914 49.5ZM324.961 48.1719V48.25L325.195 48.4062C325.768 48.1458 326.055 47.8594 326.055 47.5469L325.82 47.3125H325.586C325.169 47.5729 324.961 47.8594 324.961 48.1719ZM319.414 50.0469V50.2812L319.648 50.3594H319.805C320.482 50.3594 320.82 50.2292 320.82 49.9688L320.586 49.6562H320.117C319.753 49.6562 319.518 49.7865 319.414 50.0469ZM305.508 49.9688V50.0469C305.56 50.2552 305.742 50.3594 306.055 50.3594V50.2812C306.003 50.0729 305.82 49.9688 305.508 49.9688ZM302.617 50.0469L302.461 50.2812V50.75L302.617 50.9844H302.695L302.93 50.75V50.6719C302.93 50.3073 302.826 50.099 302.617 50.0469ZM321.836 52.2344V52.4688C323.503 52 324.414 51.6094 324.57 51.2969V51.1406C324.102 51.1406 323.19 51.5052 321.836 52.2344ZM298.164 52.0781H297.93V52.3906L298.164 52.4688H298.242V52.3906L298.164 52.0781ZM318.086 52.625L317.93 52.7812V53.0156H318.633L318.867 52.7031V52.625H318.086ZM312.305 53.9531L312.461 54.0312H313.242C314.492 53.9271 315.195 53.7448 315.352 53.4844V53.25H315.117C313.815 53.25 312.878 53.4844 312.305 53.9531ZM305.898 53.7188H305.352V53.875C305.352 54.0833 305.794 54.2396 306.68 54.3438H306.836V54.0312C306.836 53.9271 306.523 53.8229 305.898 53.7188ZM301.68 55.125L301.914 55.2031C302.383 54.9427 302.617 54.7083 302.617 54.5H302.227C301.862 54.5 301.68 54.7083 301.68 55.125ZM300.117 54.9688L299.727 55.125V55.3594L300.117 55.6719H300.43V55.3594L300.117 54.9688ZM318.867 55.75H318.633V55.9844H318.867V55.75ZM344.727 1.84375L347.383 1.45312C349.206 1.45312 350.638 2.39062 351.68 4.26562L352.227 6.76562C352.122 7.75521 351.549 9.05729 350.508 10.6719C349.831 11.349 348.789 11.6875 347.383 11.6875C344.102 11.6875 342.07 11.1927 341.289 10.2031C340.508 9.16146 340.143 7.70312 340.195 5.82812C339.987 5.82812 339.883 5.77604 339.883 5.67188V5.51562C341.445 3.06771 343.06 1.84375 344.727 1.84375ZM343.164 3.79688V3.875C344.935 3.66667 345.82 3.43229 345.82 3.17188L345.43 3.01562C343.919 3.27604 343.164 3.53646 343.164 3.79688ZM344.492 6.0625H344.57L345.039 6.14062H345.195C345.768 6.14062 346.133 5.93229 346.289 5.51562L346.211 5.35938H345.273C344.857 5.35938 344.596 5.59375 344.492 6.0625ZM350.117 5.35938L349.883 5.75V6.0625H349.961L350.195 5.75V5.35938H350.117ZM348.242 7.9375V8.17188H348.555C348.919 8.17188 349.206 7.98958 349.414 7.625V7.39062H349.258C348.893 7.39062 348.555 7.57292 348.242 7.9375ZM346.523 9.34375L346.289 9.57812V9.73438H347.695L347.93 9.57812L347.695 9.34375H346.523ZM336.602 16.7656H336.836C337.253 17.1302 337.773 17.3125 338.398 17.3125L339.414 16.8438C346.497 16.8438 350.039 17.0521 350.039 17.4688L350.117 18.0156V19.3438C350.586 20.3854 350.82 21.375 350.82 22.3125V23.5625C350.195 32.0521 349.779 38.9271 349.57 44.1875C349.466 44.5 349.362 45.0469 349.258 45.8281C349.31 46.0365 349.544 46.1406 349.961 46.1406H350.195C353.008 46.1406 354.414 46.4792 354.414 47.1562L354.336 47.3125V47.7812C354.961 49.0312 355.273 51.0104 355.273 53.7188L355.586 56.8438L355.352 57L351.914 57.1562H344.102C338.268 57.1562 335.352 56.6875 335.352 55.75C335.352 55.1771 335.195 54.6042 334.883 54.0312C335.039 53.6667 335.299 53.3802 335.664 53.1719H335.898C336.107 53.3802 336.341 53.4844 336.602 53.4844H336.758C338.268 53.4844 340.065 53.3542 342.148 53.0938V52.9375C337.669 52.625 335.43 52.2604 335.43 51.8438L335.352 51.2188V50.3594L335.195 48.3281C335.195 47.8073 337.148 47.5469 341.055 47.5469C341.576 47.5469 341.836 46.375 341.836 44.0312L342.773 23.4844H342.617C341.159 23.4844 340.43 23.3802 340.43 23.1719C340.43 23.1198 340.508 23.0417 340.664 22.9375C337.539 22.9375 335.977 22.5729 335.977 21.8438C335.768 21.7917 335.664 21.5833 335.664 21.2188L336.055 20.2812C336.055 20.0729 335.898 19.7865 335.586 19.4219C336.003 19.0052 336.289 18.1719 336.445 16.9219L336.602 16.7656ZM337.852 18.3281V18.6406H338.242C339.596 18.6406 340.273 18.5365 340.273 18.3281L340.117 18.0156H339.883C338.529 18.0156 337.852 18.1198 337.852 18.3281ZM348.477 17.7812L348.242 18.0156L348.555 18.25H348.711V18.0156L348.477 17.7812ZM339.57 19.4219H338.164V19.6562C338.164 19.8646 338.529 19.9688 339.258 19.9688H340.117H340.352H342.93C343.711 19.9688 344.102 19.8385 344.102 19.5781V19.5C344.102 19.2396 342.591 19.2135 339.57 19.4219ZM346.523 19.5L345.82 19.4219V19.5781C346.185 19.5781 346.628 19.8385 347.148 20.3594H347.305C347.409 20.3594 347.461 20.2812 347.461 20.125H347.617C347.826 20.125 347.956 20.3594 348.008 20.8281H348.164L349.258 20.0469V19.5781L347.617 19.5H346.523ZM346.211 23.875L346.602 25.0469L346.055 26.4531C346.263 26.9219 346.445 27.1562 346.602 27.1562H346.68L346.836 26.6875V26.2188C346.836 24.3438 347.122 23.4062 347.695 23.4062L347.93 23.0938V22.7812L347.695 22.5469H347.227C346.549 22.5469 346.211 22.9896 346.211 23.875ZM343.789 31.2969L343.555 41.375C343.607 41.7396 343.685 41.9219 343.789 41.9219C343.945 41.9219 344.049 41.6875 344.102 41.2188L344.023 40.0469C344.284 39.7865 344.57 38.7448 344.883 36.9219V36.4531L344.727 35.3594C345.039 35.099 345.195 34.9167 345.195 34.8125C344.987 34.2396 344.883 33.6667 344.883 33.0938V32.9375C345.091 32.9375 345.352 30.0208 345.664 24.1875C345.508 23.7708 345.352 23.5625 345.195 23.5625C344.414 23.5625 343.945 26.1406 343.789 31.2969ZM347.617 24.4219L347.305 24.5V24.9688C347.305 25.2812 347.435 25.5156 347.695 25.6719H347.93L348.164 25.3594V24.9688C348.06 24.7083 347.878 24.526 347.617 24.4219ZM347.227 37.1562H346.836C346.419 39.0833 346.211 40.5156 346.211 41.4531H346.289C346.549 41.4531 346.888 40.3854 347.305 38.25V37.7031L347.227 37.1562ZM345.742 44.5V45.0469H345.898C346.159 44.9427 346.289 44.6302 346.289 44.1094V43.5625H346.055C345.951 43.5625 345.846 43.875 345.742 44.5ZM345.898 45.6719L345.664 45.9844V46.375H345.898L346.211 46.1406V45.9062L345.977 45.6719H345.898ZM352.148 47.5469L351.914 47.625C352.227 47.8854 352.799 48.0417 353.633 48.0938V47.8594C353.633 47.651 353.294 47.5469 352.617 47.5469H352.148ZM352.461 50.8281L351.523 51.0625C351.628 51.6875 352.096 52 352.93 52H353.164V51.7656L353.008 51.5312C353.008 51.4792 353.216 51.3229 353.633 51.0625V50.6719C353.633 50.3073 353.529 50.099 353.32 50.0469H353.008C352.852 50.099 352.669 50.3594 352.461 50.8281ZM337.539 50.125L336.992 50.2812V50.3594C337.409 50.776 339.023 51.0104 341.836 51.0625H342.383C342.799 51.0625 343.06 50.9323 343.164 50.6719V50.5156C340.977 50.2552 339.102 50.125 337.539 50.125ZM344.883 51.0625L345.195 51.4531C345.664 51.4531 345.898 51.1927 345.898 50.6719H345.508C345.195 50.6719 344.987 50.8021 344.883 51.0625ZM352.227 52.625L351.992 52.9375V53.0938H352.148L352.383 52.7812V52.625H352.227ZM346.211 53.0938L345.195 53.1719H344.102V53.4844L345.195 53.5625L347.461 53.4062V53.1719H347.148L346.211 53.0938ZM354.18 55.75L353.867 55.9844V56.2188H354.336L354.414 55.9844L354.336 55.75H354.18ZM367.617 14.6562L377.305 14.4219C378.138 14.4219 379.883 14.7865 382.539 15.5156C385.56 18.3802 387.357 20.6198 387.93 22.2344C389.076 23.4323 389.987 25.8021 390.664 29.3438C391.497 30.1771 391.914 32.026 391.914 34.8906L391.992 36.8438L391.68 44.5781C391.68 46.1406 392.643 48.0677 394.57 50.3594C396.341 52.0781 397.487 52.9375 398.008 52.9375V53.0938C398.008 53.7188 397.096 54.7083 395.273 56.0625C393.919 57.4167 393.06 58.0938 392.695 58.0938H392.617C391.784 57.9896 389.674 56.4531 386.289 53.4844C380.143 55.8802 377.044 57.1042 376.992 57.1562C374.961 57.7812 372.695 58.0938 370.195 58.0938H369.805C366.992 57.625 364.596 56.5312 362.617 54.8125C362.253 54.5 361.497 53.1979 360.352 50.9062C359.414 49.7604 358.945 48.3542 358.945 46.6875V44.4219C358.945 42.9635 359.336 41.6094 360.117 40.3594C360.794 38.224 361.966 36.1927 363.633 34.2656C364.466 33.276 365.299 32.651 366.133 32.3906C368.841 30.9323 371.523 30.2031 374.18 30.2031L377.695 30.125H378.164C380.143 30.125 381.549 30.4115 382.383 30.9844H382.852C383.112 30.9844 383.242 30.8802 383.242 30.6719C382.669 28.224 381.732 25.8802 380.43 23.6406C379.284 21.7135 377.148 20.75 374.023 20.75L370.82 20.2812C368.06 20.8542 366.68 21.4271 366.68 22C365.586 23.4062 364.935 25.151 364.727 27.2344C364.622 27.4948 363.685 27.625 361.914 27.625L361.445 27.7812C361.237 27.7812 360.977 28.224 360.664 29.1094C359.206 28.901 358.477 28.5885 358.477 28.1719C358.581 27.8594 358.763 25.9844 359.023 22.5469C359.857 20.151 361.836 17.9375 364.961 15.9062C366.419 15.0729 367.305 14.6562 367.617 14.6562ZM376.367 15.9844L376.211 16.2188L376.445 16.5312H376.914L376.992 16.375L376.758 15.9844H376.367ZM382.305 16.6094H382.148V16.7656C382.565 17.1823 382.93 17.3906 383.242 17.3906H383.32V17.2344C382.904 16.8177 382.565 16.6094 382.305 16.6094ZM369.805 17V17.2344C369.857 17.3906 370.117 17.4688 370.586 17.4688C371.055 17.4688 371.706 17.3125 372.539 17V16.6875H372.227C371.081 16.6875 370.273 16.7917 369.805 17ZM362.773 19.5V19.6562H362.852C363.32 19.6562 364.023 19.1615 364.961 18.1719V17.9375H364.883C364.362 17.9375 363.659 18.4583 362.773 19.5ZM373.633 18.9531L373.242 19.2656L373.477 19.6562H374.492L374.727 19.4219L374.258 18.9531H373.633ZM362.148 25.2812L361.914 25.4375V26.6094H361.992C362.201 26.5573 362.305 26.375 362.305 26.0625V25.4375L362.148 25.2812ZM390.508 31.5312H390.43V31.6875C390.534 32.1042 390.638 32.3125 390.742 32.3125L390.82 31.9219C390.716 31.6615 390.612 31.5312 390.508 31.5312ZM388.711 34.2656L388.477 34.4219V34.6562C388.685 35.4375 388.893 35.8281 389.102 35.8281H389.258C389.258 35.151 389.102 34.6302 388.789 34.2656H388.711ZM365.82 34.7344L364.961 35.125V35.5156H365.117C365.482 35.5156 365.742 35.3073 365.898 34.8906V34.7344H365.82ZM364.961 42.1562C365.326 45.2812 365.768 46.8438 366.289 46.8438L367.07 47.8594V47.9375L366.367 47.8594V48.0938C367.357 49.4479 369.388 50.6979 372.461 51.8438C372.826 52.0521 373.346 52.2083 374.023 52.3125C374.961 52.3125 378.555 50.776 384.805 47.7031C385.221 47.4427 385.43 47.1562 385.43 46.8438V46.4531C384.961 44.3177 384.57 41.8177 384.258 38.9531L384.102 38.875C384.102 38.3021 383.529 37.8333 382.383 37.4688C378.529 36.375 375.898 35.8281 374.492 35.8281C370.534 36.7135 367.826 38.0417 366.367 39.8125C365.43 40.75 364.961 41.5312 364.961 42.1562ZM388.477 37.0781L388.242 36.9219V37.1562H388.477V37.0781ZM388.789 38.5625H388.32V38.875L388.555 39.1094L388.789 38.875V38.5625ZM386.289 40.5156L386.055 40.75L386.289 41.0625L386.602 40.9844V40.75L386.367 40.5156H386.289ZM389.102 40.75H388.867V40.8281C388.971 42.8073 389.18 43.7969 389.492 43.7969L389.648 43.6406V43.4844C389.648 42.3906 389.466 41.4792 389.102 40.75ZM386.055 43.25L385.977 43.3281V43.7969L386.211 44.1094H386.289L386.602 43.7969V43.3281L386.367 43.25H386.055ZM392.695 50.5938H392.461V51.0625C392.669 51.7396 392.904 52.0781 393.164 52.0781H393.398V51.8438C393.19 51.0104 392.956 50.5938 392.695 50.5938ZM363.945 50.8281L363.789 50.9844V51.0625L363.945 51.2188H364.336V51.0625L364.102 50.8281H363.945ZM390.273 51.8438L390.039 52.0781C390.195 52.4427 390.404 52.6771 390.664 52.7812H390.742L391.055 52.4688V52.3125L390.664 51.8438H390.273ZM378.945 52.9375V53.0938H379.258C379.987 53.0938 380.951 52.7812 382.148 52.1562V52.0781H381.836C380.065 52.2865 379.102 52.5729 378.945 52.9375ZM391.992 53.1719L391.836 53.4844V53.6406L392.148 53.9531H392.461L392.695 53.7969V53.6406L392.305 53.1719H391.992ZM372.695 53.7969L372.461 54.0312C372.565 54.2917 372.773 54.4219 373.086 54.4219C373.659 54.3177 373.945 54.1875 373.945 54.0312V53.9531L373.711 53.7969H372.695ZM364.18 54.8906L363.945 55.2031C364.154 55.6719 365.456 56.2708 367.852 57C368.633 57.3646 369.674 57.5469 370.977 57.5469V57.4688C370.977 57.3125 369.987 57.026 368.008 56.6094C366.862 56.2969 365.664 55.724 364.414 54.8906H364.18ZM401.914 3.48438L402.773 3.25C406.94 3.25 410.534 3.71875 413.555 4.65625H414.883H415.898L416.055 5.04688L415.977 9.57812C415.924 9.89062 415.742 10.0469 415.43 10.0469L414.492 9.10938L412.383 8.64062H411.68L411.211 8.79688V9.10938C411.94 9.42188 412.409 9.57812 412.617 9.57812V9.73438C412.617 9.94271 412.018 10.099 410.82 10.2031L410.352 25.4375V27.0781L410.273 48.0156V49.2656C410.273 49.7344 411.732 49.9688 414.648 49.9688H429.648L432.148 50.125C432.461 50.125 432.721 48.6927 432.93 45.8281C433.086 45.099 433.32 44.7344 433.633 44.7344C436.706 44.8385 438.242 45.125 438.242 45.5938C438.034 46.0625 437.721 46.2969 437.305 46.2969V46.5312C437.826 47.0521 438.086 47.4948 438.086 47.8594C438.086 49.0573 437.904 50.6458 437.539 52.625V53.7969L437.617 54.1875C437.305 54.7604 437.148 55.2812 437.148 55.75C437.044 55.75 436.836 56.0885 436.523 56.7656C435.378 57.1823 434.258 57.3906 433.164 57.3906H432.852L426.133 56.7656H425.742L410.352 57.3906L399.648 56.375C399.232 56.0625 399.023 55.724 399.023 55.3594C399.44 52.2865 400.091 50.75 400.977 50.75C401.237 50.4896 402.253 50.2812 404.023 50.125C404.701 48.4583 404.727 40.9062 404.102 27.4688C404.414 23.8229 404.674 18.4062 404.883 11.2188V10.4375C404.883 9.65625 404.336 9.26562 403.242 9.26562L402.539 9.10938V8.875C403.477 8.40625 404.206 8.17188 404.727 8.17188V7.85938L402.93 7.625H401.836V7.9375C402.044 7.9375 402.148 8.01562 402.148 8.17188C401.992 8.43229 401.758 8.5625 401.445 8.5625H401.133C400.612 8.35417 400.352 7.75521 400.352 6.76562V6.53125C400.352 5.33333 400.69 4.57812 401.367 4.26562C401.523 4.26562 401.706 4.00521 401.914 3.48438ZM402.539 5.90625L402.305 6.0625V6.21875H402.695L402.93 5.98438V5.90625H402.539ZM412.93 5.98438L412.617 6.21875V6.375L413.164 6.53125V6.60938L412.93 6.76562L411.367 6.6875L411.289 6.76562V7.15625L411.523 7.39062H413.086C413.919 7.39062 414.336 7.10417 414.336 6.53125C413.971 6.16667 413.581 5.98438 413.164 5.98438H412.93ZM407.148 6.53125C407.357 6.89583 407.93 7.07812 408.867 7.07812H409.414L409.805 6.6875C409.336 6.375 408.867 6.21875 408.398 6.21875H407.773C407.357 6.21875 407.148 6.32292 407.148 6.53125ZM408.945 7.9375L408.555 8.09375V8.17188L408.711 8.48438H409.258L409.727 8.32812V8.09375L409.258 7.9375H408.945ZM408.633 9.57812L408.555 9.73438V10.8281C408.607 11.5052 408.737 11.8438 408.945 11.8438L409.414 11.5312V10.9844C409.362 10.0469 409.102 9.57812 408.633 9.57812ZM408.086 25.0469H407.852C407.435 27.2344 407.409 28.6667 407.773 29.3438C408.034 29.8125 408.216 29.6562 408.32 28.875L408.398 26.2969C408.346 25.4635 408.242 25.0469 408.086 25.0469ZM436.758 47.7031H436.602C436.185 48.7969 435.977 49.4219 435.977 49.5781L435.352 52.8594V53.1719L435.586 53.4062H435.82C436.497 53.0938 436.888 51.6094 436.992 48.9531C436.94 48.1198 436.862 47.7031 436.758 47.7031ZM407.773 48.0156H407.383V48.25C407.122 49.0312 406.992 49.6042 406.992 49.9688C406.992 50.6979 407.174 51.1406 407.539 51.2969H407.852C408.06 51.2969 408.164 50.5417 408.164 49.0312V48.7188C408.164 48.3542 408.034 48.1198 407.773 48.0156ZM429.258 50.6719H428.477V50.9062C428.477 51.0625 428.815 51.1667 429.492 51.2188C429.492 51.6354 429.961 51.8698 430.898 51.9219L432.383 51.7656V51.4531C431.393 51.4531 430.352 51.1927 429.258 50.6719ZM427.07 51.4531H425.039V51.5312C425.091 51.6875 425.352 51.7656 425.82 51.7656H427.539V51.5312L427.07 51.4531ZM400.508 52.625C400.924 52.625 401.133 52.4427 401.133 52.0781V51.9219H400.977C400.664 51.974 400.508 52.2083 400.508 52.625ZM408.242 52.4688H407.852V52.8594C408.789 53.0156 413.477 53.3021 421.914 53.7188L422.07 53.6406V53.4844L408.242 52.4688ZM400.664 53.1719L400.195 53.25V53.4844L400.43 53.7188H400.664L400.898 53.4844V53.4062L400.664 53.1719ZM426.445 53.875L426.289 54.0312V54.1875L426.992 54.3438H428.086V54.1875C428.086 53.9792 427.904 53.875 427.539 53.875H426.445ZM429.805 54.8906V54.9688H430.039C430.56 54.9688 431.081 54.7604 431.602 54.3438C431.549 54.1354 431.341 54.0312 430.977 54.0312C430.768 54.0312 430.378 54.3177 429.805 54.8906ZM432.07 55.2031L430.898 55.2812V55.3594C431.315 55.776 431.836 55.9844 432.461 55.9844H432.695C432.956 55.9844 433.19 55.8802 433.398 55.6719C433.659 55.8802 433.945 55.9844 434.258 55.9844H434.883C435.456 55.9844 435.768 55.8802 435.82 55.6719V55.5938C435.82 55.3333 435.013 55.2031 433.398 55.2031H432.07ZM410.742 55.9062L409.023 55.9844V56.1406C409.023 56.5052 410.247 56.7396 412.695 56.8438C414.31 56.8438 415.638 56.6875 416.68 56.375V56.1406C414.492 55.9844 412.539 55.9062 410.82 55.9062H410.742ZM407.461 56.1406H407.305V56.375H407.461V56.1406ZM419.648 56.1406L419.18 56.2969V56.6094H419.648L420.586 56.375V56.1406H419.648ZM450.898 1.84375L453.555 1.45312C455.378 1.45312 456.81 2.39062 457.852 4.26562L458.398 6.76562C458.294 7.75521 457.721 9.05729 456.68 10.6719C456.003 11.349 454.961 11.6875 453.555 11.6875C450.273 11.6875 448.242 11.1927 447.461 10.2031C446.68 9.16146 446.315 7.70312 446.367 5.82812C446.159 5.82812 446.055 5.77604 446.055 5.67188V5.51562C447.617 3.06771 449.232 1.84375 450.898 1.84375ZM449.336 3.79688V3.875C451.107 3.66667 451.992 3.43229 451.992 3.17188L451.602 3.01562C450.091 3.27604 449.336 3.53646 449.336 3.79688ZM450.664 6.0625H450.742L451.211 6.14062H451.367C451.94 6.14062 452.305 5.93229 452.461 5.51562L452.383 5.35938H451.445C451.029 5.35938 450.768 5.59375 450.664 6.0625ZM456.289 5.35938L456.055 5.75V6.0625H456.133L456.367 5.75V5.35938H456.289ZM454.414 7.9375V8.17188H454.727C455.091 8.17188 455.378 7.98958 455.586 7.625V7.39062H455.43C455.065 7.39062 454.727 7.57292 454.414 7.9375ZM452.695 9.34375L452.461 9.57812V9.73438H453.867L454.102 9.57812L453.867 9.34375H452.695ZM442.773 16.7656H443.008C443.424 17.1302 443.945 17.3125 444.57 17.3125L445.586 16.8438C452.669 16.8438 456.211 17.0521 456.211 17.4688L456.289 18.0156V19.3438C456.758 20.3854 456.992 21.375 456.992 22.3125V23.5625C456.367 32.0521 455.951 38.9271 455.742 44.1875C455.638 44.5 455.534 45.0469 455.43 45.8281C455.482 46.0365 455.716 46.1406 456.133 46.1406H456.367C459.18 46.1406 460.586 46.4792 460.586 47.1562L460.508 47.3125V47.7812C461.133 49.0312 461.445 51.0104 461.445 53.7188L461.758 56.8438L461.523 57L458.086 57.1562H450.273C444.44 57.1562 441.523 56.6875 441.523 55.75C441.523 55.1771 441.367 54.6042 441.055 54.0312C441.211 53.6667 441.471 53.3802 441.836 53.1719H442.07C442.279 53.3802 442.513 53.4844 442.773 53.4844H442.93C444.44 53.4844 446.237 53.3542 448.32 53.0938V52.9375C443.841 52.625 441.602 52.2604 441.602 51.8438L441.523 51.2188V50.3594L441.367 48.3281C441.367 47.8073 443.32 47.5469 447.227 47.5469C447.747 47.5469 448.008 46.375 448.008 44.0312L448.945 23.4844H448.789C447.331 23.4844 446.602 23.3802 446.602 23.1719C446.602 23.1198 446.68 23.0417 446.836 22.9375C443.711 22.9375 442.148 22.5729 442.148 21.8438C441.94 21.7917 441.836 21.5833 441.836 21.2188L442.227 20.2812C442.227 20.0729 442.07 19.7865 441.758 19.4219C442.174 19.0052 442.461 18.1719 442.617 16.9219L442.773 16.7656ZM444.023 18.3281V18.6406H444.414C445.768 18.6406 446.445 18.5365 446.445 18.3281L446.289 18.0156H446.055C444.701 18.0156 444.023 18.1198 444.023 18.3281ZM454.648 17.7812L454.414 18.0156L454.727 18.25H454.883V18.0156L454.648 17.7812ZM445.742 19.4219H444.336V19.6562C444.336 19.8646 444.701 19.9688 445.43 19.9688H446.289H446.523H449.102C449.883 19.9688 450.273 19.8385 450.273 19.5781V19.5C450.273 19.2396 448.763 19.2135 445.742 19.4219ZM452.695 19.5L451.992 19.4219V19.5781C452.357 19.5781 452.799 19.8385 453.32 20.3594H453.477C453.581 20.3594 453.633 20.2812 453.633 20.125H453.789C453.997 20.125 454.128 20.3594 454.18 20.8281H454.336L455.43 20.0469V19.5781L453.789 19.5H452.695ZM452.383 23.875L452.773 25.0469L452.227 26.4531C452.435 26.9219 452.617 27.1562 452.773 27.1562H452.852L453.008 26.6875V26.2188C453.008 24.3438 453.294 23.4062 453.867 23.4062L454.102 23.0938V22.7812L453.867 22.5469H453.398C452.721 22.5469 452.383 22.9896 452.383 23.875ZM449.961 31.2969L449.727 41.375C449.779 41.7396 449.857 41.9219 449.961 41.9219C450.117 41.9219 450.221 41.6875 450.273 41.2188L450.195 40.0469C450.456 39.7865 450.742 38.7448 451.055 36.9219V36.4531L450.898 35.3594C451.211 35.099 451.367 34.9167 451.367 34.8125C451.159 34.2396 451.055 33.6667 451.055 33.0938V32.9375C451.263 32.9375 451.523 30.0208 451.836 24.1875C451.68 23.7708 451.523 23.5625 451.367 23.5625C450.586 23.5625 450.117 26.1406 449.961 31.2969ZM453.789 24.4219L453.477 24.5V24.9688C453.477 25.2812 453.607 25.5156 453.867 25.6719H454.102L454.336 25.3594V24.9688C454.232 24.7083 454.049 24.526 453.789 24.4219ZM453.398 37.1562H453.008C452.591 39.0833 452.383 40.5156 452.383 41.4531H452.461C452.721 41.4531 453.06 40.3854 453.477 38.25V37.7031L453.398 37.1562ZM451.914 44.5V45.0469H452.07C452.331 44.9427 452.461 44.6302 452.461 44.1094V43.5625H452.227C452.122 43.5625 452.018 43.875 451.914 44.5ZM452.07 45.6719L451.836 45.9844V46.375H452.07L452.383 46.1406V45.9062L452.148 45.6719H452.07ZM458.32 47.5469L458.086 47.625C458.398 47.8854 458.971 48.0417 459.805 48.0938V47.8594C459.805 47.651 459.466 47.5469 458.789 47.5469H458.32ZM458.633 50.8281L457.695 51.0625C457.799 51.6875 458.268 52 459.102 52H459.336V51.7656L459.18 51.5312C459.18 51.4792 459.388 51.3229 459.805 51.0625V50.6719C459.805 50.3073 459.701 50.099 459.492 50.0469H459.18C459.023 50.099 458.841 50.3594 458.633 50.8281ZM443.711 50.125L443.164 50.2812V50.3594C443.581 50.776 445.195 51.0104 448.008 51.0625H448.555C448.971 51.0625 449.232 50.9323 449.336 50.6719V50.5156C447.148 50.2552 445.273 50.125 443.711 50.125ZM451.055 51.0625L451.367 51.4531C451.836 51.4531 452.07 51.1927 452.07 50.6719H451.68C451.367 50.6719 451.159 50.8021 451.055 51.0625ZM458.398 52.625L458.164 52.9375V53.0938H458.32L458.555 52.7812V52.625H458.398ZM452.383 53.0938L451.367 53.1719H450.273V53.4844L451.367 53.5625L453.633 53.4062V53.1719H453.32L452.383 53.0938ZM460.352 55.75L460.039 55.9844V56.2188H460.508L460.586 55.9844L460.508 55.75H460.352ZM465.43 0.4375L465.508 0.515625V0.59375L465.273 0.828125C465.326 1.03646 465.534 1.14062 465.898 1.14062H466.055L466.211 0.90625L465.898 0.515625L466.055 0.4375H469.102C470.924 0.4375 471.836 0.984375 471.836 2.07812L472.07 2.39062H472.305L472.539 2.23438V2.07812L472.305 1.45312L472.383 1.29688H472.539C473.841 1.29688 474.492 2.70312 474.492 5.51562C474.492 11.8177 474.857 16.4792 475.586 19.5H475.898L480.742 19.2656C486.68 19.6302 489.648 20.151 489.648 20.8281C489.857 20.8281 490.872 21.6354 492.695 23.25C495.664 25.75 497.565 28.1979 498.398 30.5938C499.336 31.6354 499.805 34.474 499.805 39.1094L499.883 41.4531C498.32 44.6823 497.539 46.6094 497.539 47.2344C497.539 49.1094 495.456 51.5833 491.289 54.6562C490.716 55.9583 487.539 56.6354 481.758 56.6875C479.206 56.2188 477.435 55.9844 476.445 55.9844H474.648C473.763 55.9844 473.32 56.349 473.32 57.0781L471.68 59.1875C470.794 59.4479 470.091 59.5781 469.57 59.5781C468.945 59.5781 467.669 59.0833 465.742 58.0938V57.8594C466.107 57.4427 466.289 57.026 466.289 56.6094V56.2969L466.055 54.8906L466.211 53.7969V52.3906L465.898 50.8281C466.523 47.4427 466.836 45.151 466.836 43.9531L467.07 43.1719L466.914 42.1562L467.617 36.6094V36.2969C467.617 34.9427 467.279 30.724 466.602 23.6406V23.4844L466.445 23.4062L466.602 22.8594V22.5469C466.81 19.3698 466.914 16.4531 466.914 13.7969V7.9375L466.836 7.46875H466.68C464.701 8.51042 463.268 9.03125 462.383 9.03125C461.758 9.03125 461.367 7.625 461.211 4.8125C461.211 4.60417 461.367 4.31771 461.68 3.95312V3.71875H461.523L461.289 3.79688L461.211 3.71875C461.211 1.73958 461.419 0.75 461.836 0.75C462.409 0.541667 463.607 0.4375 465.43 0.4375ZM471.914 0.515625H472.305V0.75L471.914 0.828125L471.836 0.75V0.59375L471.914 0.515625ZM467.617 1.76562H467.383V1.84375H467.617V1.76562ZM469.102 1.76562L468.867 2V2.07812H469.414V1.76562H469.102ZM462.695 2H461.836V2.07812C461.836 2.23438 462.383 2.44271 463.477 2.70312C464.57 2.65104 465.117 2.52083 465.117 2.3125V2.23438C464.492 2.07812 463.685 2 462.695 2ZM470.117 3.01562L469.727 3.40625V4.65625L469.961 4.8125C470.378 4.55208 470.586 4.13542 470.586 3.5625C470.586 3.25 470.508 3.06771 470.352 3.01562H470.117ZM467.148 4.5L467.461 4.73438H468.32L468.633 4.34375V3.95312L468.32 3.71875C467.539 3.71875 467.148 3.97917 467.148 4.5ZM463.164 3.79688H463.008L462.93 4.26562V4.96875C462.93 5.17708 463.19 5.30729 463.711 5.35938C464.44 5.35938 464.857 5.125 464.961 4.65625C464.232 4.08333 463.633 3.79688 463.164 3.79688ZM466.055 4.03125H465.43V4.1875L465.664 4.5H466.289V4.26562L466.055 4.03125ZM469.805 10.3594C469.961 11.5052 470.169 12.0781 470.43 12.0781H470.508V11.9219C470.404 10.724 470.221 10.125 469.961 10.125C469.857 10.125 469.805 10.2031 469.805 10.3594ZM485.586 20.8281H484.961V20.9844C485.117 21.2969 485.43 21.4531 485.898 21.4531H485.977V21.2188L485.586 20.8281ZM479.258 21.6875L479.492 21.9219H479.961L480.664 21.6875V21.2969L480.273 21.2188C479.857 21.2188 479.518 21.375 479.258 21.6875ZM475.742 23.9531V24.2656H475.898C477.201 24.0573 477.852 23.849 477.852 23.6406V23.4062H477.695C477.122 23.4062 476.471 23.5885 475.742 23.9531ZM488.008 23.6406H487.695C487.695 24.1615 488.451 24.6302 489.961 25.0469C491.003 26.4531 491.758 27.1562 492.227 27.1562V27.0781C491.914 25.9844 491.445 25.2292 490.82 24.8125C489.414 24.0312 488.477 23.6406 488.008 23.6406ZM473.477 39.1875C473.477 40.4375 473.529 41.6354 473.633 42.7812L473.555 44.7344V48.25C473.555 48.9271 474.779 49.6302 477.227 50.3594C477.799 50.5677 478.789 50.6719 480.195 50.6719C482.799 50.6719 486.055 49.8385 489.961 48.1719C491.211 47.1823 492.617 45.099 494.18 41.9219L494.648 39.9688C494.648 37.3125 493.841 34.526 492.227 31.6094C491.862 29.9948 491.003 28.5625 489.648 27.3125L486.133 24.8125C482.487 24.8125 478.711 25.5938 474.805 27.1562C474.388 27.1562 474.102 29.0052 473.945 32.7031C473.633 34.526 473.477 36.6875 473.477 39.1875ZM497.695 31.0625H497.539V31.375C497.539 31.7396 497.721 31.9219 498.086 31.9219H498.164V31.8438C498.164 31.4792 498.008 31.2188 497.695 31.0625ZM495.039 33.0938H494.805V33.3281L495.039 33.4844H495.195V33.3281L495.039 33.0938ZM495.586 49.5V49.5781C496.315 49.5781 496.836 48.4062 497.148 46.0625H496.602C496.393 46.0625 496.107 47.026 495.742 48.9531C495.638 48.9531 495.586 49.1354 495.586 49.5ZM493.633 48.1719V48.25L493.867 48.4062C494.44 48.1458 494.727 47.8594 494.727 47.5469L494.492 47.3125H494.258C493.841 47.5729 493.633 47.8594 493.633 48.1719ZM488.086 50.0469V50.2812L488.32 50.3594H488.477C489.154 50.3594 489.492 50.2292 489.492 49.9688L489.258 49.6562H488.789C488.424 49.6562 488.19 49.7865 488.086 50.0469ZM474.18 49.9688V50.0469C474.232 50.2552 474.414 50.3594 474.727 50.3594V50.2812C474.674 50.0729 474.492 49.9688 474.18 49.9688ZM471.289 50.0469L471.133 50.2812V50.75L471.289 50.9844H471.367L471.602 50.75V50.6719C471.602 50.3073 471.497 50.099 471.289 50.0469ZM490.508 52.2344V52.4688C492.174 52 493.086 51.6094 493.242 51.2969V51.1406C492.773 51.1406 491.862 51.5052 490.508 52.2344ZM466.836 52.0781H466.602V52.3906L466.836 52.4688H466.914V52.3906L466.836 52.0781ZM486.758 52.625L486.602 52.7812V53.0156H487.305L487.539 52.7031V52.625H486.758ZM480.977 53.9531L481.133 54.0312H481.914C483.164 53.9271 483.867 53.7448 484.023 53.4844V53.25H483.789C482.487 53.25 481.549 53.4844 480.977 53.9531ZM474.57 53.7188H474.023V53.875C474.023 54.0833 474.466 54.2396 475.352 54.3438H475.508V54.0312C475.508 53.9271 475.195 53.8229 474.57 53.7188ZM470.352 55.125L470.586 55.2031C471.055 54.9427 471.289 54.7083 471.289 54.5H470.898C470.534 54.5 470.352 54.7083 470.352 55.125ZM468.789 54.9688L468.398 55.125V55.3594L468.789 55.6719H469.102V55.3594L468.789 54.9688ZM487.539 55.75H487.305V55.9844H487.539V55.75ZM531.914 20.5938C533.945 20.5938 535.664 22.026 537.07 24.8906C537.331 24.8906 537.695 25.2292 538.164 25.9062L539.18 31.6875C538.815 32.3125 537.435 32.625 535.039 32.625H534.258C532.331 32.3125 531.367 31.6615 531.367 30.6719C531.367 29.9427 530.768 28.9271 529.57 27.625C529.414 27.3646 528.294 27.2344 526.211 27.2344C524.232 27.2344 521.836 27.7552 519.023 28.7969C517.044 30.8802 515.742 32.4948 515.117 33.6406C515.482 42.5469 515.612 48.1198 515.508 50.3594C515.508 50.8281 515.82 51.0625 516.445 51.0625H518.32C519.154 51.1146 519.57 51.2708 519.57 51.5312V51.6094L519.883 52.625L519.727 57L519.258 57.625L515.586 58.0156H515.273L513.711 58.4844C507.721 58.276 504.727 58.0417 504.727 57.7812C503.685 57.7812 503.164 57.3125 503.164 56.375C503.06 55.4375 503.008 54.474 503.008 53.4844C503.008 52.4948 504.023 51.8438 506.055 51.5312C506.055 51.1146 506.758 50.9062 508.164 50.9062L508.398 50.8281V50.6719L507.93 29.2656C507.93 27.9635 507.591 27.3125 506.914 27.3125H506.445C505.82 27.3125 504.779 27.599 503.32 28.1719L503.164 28.0156V27.8594C503.164 27.7552 503.372 27.625 503.789 27.4688V27.3125C503.268 27.3125 503.008 25.8542 503.008 22.9375C502.904 22.9375 502.826 22.4688 502.773 21.5312C504.857 19.9167 507.044 19.1094 509.336 19.1094H511.289C512.07 19.1094 513.398 19.3698 515.273 19.8906V20.125C514.805 20.8542 514.57 21.375 514.57 21.6875V22.2344C518.789 20.3594 524.57 19.8125 531.914 20.5938ZM511.445 32.3906V32.7812C511.706 33.3021 511.836 33.849 511.836 34.4219C511.784 34.6302 511.706 35.6979 511.602 37.625L511.758 40.75H511.836C511.992 40.75 512.201 38.3281 512.461 33.4844C512.565 33.4844 512.617 32.9635 512.617 31.9219C512.565 31.4531 512.435 31.2188 512.227 31.2188H512.07C511.654 31.4792 511.445 31.8698 511.445 32.3906ZM506.758 55.9844L505.742 56.0625V56.2188C505.742 56.4792 506.497 56.6094 508.008 56.6094H510.352L510.898 56.5312C510.898 56.2708 509.518 56.0885 506.758 55.9844ZM520.273 23.9531V24.1094C520.742 24.1094 521.367 23.3542 522.148 21.8438V21.4531H522.07C520.716 21.8698 520.117 22.7031 520.273 23.9531ZM530.352 26.4531H530.742C531.003 26.401 531.497 25.776 532.227 24.5781V24.5C532.227 24.3958 532.122 24.3438 531.914 24.3438C531.029 24.7604 530.586 25.3073 530.586 25.9844C530.534 25.9844 530.456 26.1406 530.352 26.4531ZM512.383 28.25H512.07L511.68 29.8906C511.68 30.151 511.836 30.4115 512.148 30.6719H512.227C512.383 30.6719 512.513 30.3073 512.617 29.5781L512.383 28.25ZM523.242 22.2344L523.633 23.7969H524.258V22.1562L524.023 21.9219H523.789C523.424 21.974 523.242 22.0781 523.242 22.2344ZM506.211 54.7344L506.055 54.8906L506.133 55.0469H510.43V54.8125L507.773 54.7344H506.211ZM504.805 22.1562C505.221 22.5729 505.664 22.7812 506.133 22.7812L506.211 22.625V22.0781L505.898 21.6875C505.169 21.7917 504.805 21.9479 504.805 22.1562ZM512.695 55.2812L512.93 55.5156H514.102L514.414 55.2031C514.414 55.099 514.284 54.9948 514.023 54.8906C513.138 54.9948 512.695 55.125 512.695 55.2812ZM535.195 24.2656H534.961V24.4219C535.378 24.8385 535.742 25.0469 536.055 25.0469H536.289V24.8906C535.872 24.474 535.508 24.2656 535.195 24.2656ZM508.398 20.5938H508.164V20.9062L508.633 21.4531H509.336V21.2969L508.398 20.5938ZM506.055 25.2031V25.3594H506.289C506.862 25.3594 507.174 25.2552 507.227 25.0469L507.07 24.8125H506.914C506.445 24.8125 506.159 24.9427 506.055 25.2031ZM526.055 21.5312L525.117 21.6094V21.6875L525.273 21.9219H526.055C526.419 21.9219 526.628 21.8177 526.68 21.6094L526.523 21.5312H526.055ZM513.711 46.6875L513.398 46.9219V47.5469H513.711L514.023 47.3125V46.8438L513.867 46.6875H513.711ZM504.336 55.2031L504.023 54.8906L503.867 55.2031V55.5156L504.023 55.75H504.336V55.2031ZM515.273 25.6719L514.961 25.75V25.9844L515.273 26.2188H515.508L515.742 25.9844V25.75L515.273 25.6719ZM527.617 21.4531V21.6094H528.164L528.477 21.375L528.242 21.1406C527.826 21.2448 527.617 21.349 527.617 21.4531ZM532.773 21.4531L532.617 21.6094V21.6875L532.773 21.9219H533.086L533.242 21.6875V21.6094L533.086 21.4531H532.773ZM513.789 20.6719L513.398 20.8281V21.1406H513.789L514.023 20.8281L513.789 20.6719ZM513.555 22.0781L513.242 22.3125V22.4688L513.398 22.625L513.789 22.3125V22.0781H513.555ZM532.539 28.5625V28.7188H532.695L533.008 28.4844V28.25H532.93C532.669 28.4062 532.539 28.5104 532.539 28.5625ZM529.883 21.6875L529.57 21.9219V22H529.961L530.117 21.8438V21.6875H529.883ZM513.711 48.4062H513.555V48.7188H513.711V48.4062ZM552.383 1.84375L555.039 1.45312C556.862 1.45312 558.294 2.39062 559.336 4.26562L559.883 6.76562C559.779 7.75521 559.206 9.05729 558.164 10.6719C557.487 11.349 556.445 11.6875 555.039 11.6875C551.758 11.6875 549.727 11.1927 548.945 10.2031C548.164 9.16146 547.799 7.70312 547.852 5.82812C547.643 5.82812 547.539 5.77604 547.539 5.67188V5.51562C549.102 3.06771 550.716 1.84375 552.383 1.84375ZM550.82 3.79688V3.875C552.591 3.66667 553.477 3.43229 553.477 3.17188L553.086 3.01562C551.576 3.27604 550.82 3.53646 550.82 3.79688ZM552.148 6.0625H552.227L552.695 6.14062H552.852C553.424 6.14062 553.789 5.93229 553.945 5.51562L553.867 5.35938H552.93C552.513 5.35938 552.253 5.59375 552.148 6.0625ZM557.773 5.35938L557.539 5.75V6.0625H557.617L557.852 5.75V5.35938H557.773ZM555.898 7.9375V8.17188H556.211C556.576 8.17188 556.862 7.98958 557.07 7.625V7.39062H556.914C556.549 7.39062 556.211 7.57292 555.898 7.9375ZM554.18 9.34375L553.945 9.57812V9.73438H555.352L555.586 9.57812L555.352 9.34375H554.18ZM544.258 16.7656H544.492C544.909 17.1302 545.43 17.3125 546.055 17.3125L547.07 16.8438C554.154 16.8438 557.695 17.0521 557.695 17.4688L557.773 18.0156V19.3438C558.242 20.3854 558.477 21.375 558.477 22.3125V23.5625C557.852 32.0521 557.435 38.9271 557.227 44.1875C557.122 44.5 557.018 45.0469 556.914 45.8281C556.966 46.0365 557.201 46.1406 557.617 46.1406H557.852C560.664 46.1406 562.07 46.4792 562.07 47.1562L561.992 47.3125V47.7812C562.617 49.0312 562.93 51.0104 562.93 53.7188L563.242 56.8438L563.008 57L559.57 57.1562H551.758C545.924 57.1562 543.008 56.6875 543.008 55.75C543.008 55.1771 542.852 54.6042 542.539 54.0312C542.695 53.6667 542.956 53.3802 543.32 53.1719H543.555C543.763 53.3802 543.997 53.4844 544.258 53.4844H544.414C545.924 53.4844 547.721 53.3542 549.805 53.0938V52.9375C545.326 52.625 543.086 52.2604 543.086 51.8438L543.008 51.2188V50.3594L542.852 48.3281C542.852 47.8073 544.805 47.5469 548.711 47.5469C549.232 47.5469 549.492 46.375 549.492 44.0312L550.43 23.4844H550.273C548.815 23.4844 548.086 23.3802 548.086 23.1719C548.086 23.1198 548.164 23.0417 548.32 22.9375C545.195 22.9375 543.633 22.5729 543.633 21.8438C543.424 21.7917 543.32 21.5833 543.32 21.2188L543.711 20.2812C543.711 20.0729 543.555 19.7865 543.242 19.4219C543.659 19.0052 543.945 18.1719 544.102 16.9219L544.258 16.7656ZM545.508 18.3281V18.6406H545.898C547.253 18.6406 547.93 18.5365 547.93 18.3281L547.773 18.0156H547.539C546.185 18.0156 545.508 18.1198 545.508 18.3281ZM556.133 17.7812L555.898 18.0156L556.211 18.25H556.367V18.0156L556.133 17.7812ZM547.227 19.4219H545.82V19.6562C545.82 19.8646 546.185 19.9688 546.914 19.9688H547.773H548.008H550.586C551.367 19.9688 551.758 19.8385 551.758 19.5781V19.5C551.758 19.2396 550.247 19.2135 547.227 19.4219ZM554.18 19.5L553.477 19.4219V19.5781C553.841 19.5781 554.284 19.8385 554.805 20.3594H554.961C555.065 20.3594 555.117 20.2812 555.117 20.125H555.273C555.482 20.125 555.612 20.3594 555.664 20.8281H555.82L556.914 20.0469V19.5781L555.273 19.5H554.18ZM553.867 23.875L554.258 25.0469L553.711 26.4531C553.919 26.9219 554.102 27.1562 554.258 27.1562H554.336L554.492 26.6875V26.2188C554.492 24.3438 554.779 23.4062 555.352 23.4062L555.586 23.0938V22.7812L555.352 22.5469H554.883C554.206 22.5469 553.867 22.9896 553.867 23.875ZM551.445 31.2969L551.211 41.375C551.263 41.7396 551.341 41.9219 551.445 41.9219C551.602 41.9219 551.706 41.6875 551.758 41.2188L551.68 40.0469C551.94 39.7865 552.227 38.7448 552.539 36.9219V36.4531L552.383 35.3594C552.695 35.099 552.852 34.9167 552.852 34.8125C552.643 34.2396 552.539 33.6667 552.539 33.0938V32.9375C552.747 32.9375 553.008 30.0208 553.32 24.1875C553.164 23.7708 553.008 23.5625 552.852 23.5625C552.07 23.5625 551.602 26.1406 551.445 31.2969ZM555.273 24.4219L554.961 24.5V24.9688C554.961 25.2812 555.091 25.5156 555.352 25.6719H555.586L555.82 25.3594V24.9688C555.716 24.7083 555.534 24.526 555.273 24.4219ZM554.883 37.1562H554.492C554.076 39.0833 553.867 40.5156 553.867 41.4531H553.945C554.206 41.4531 554.544 40.3854 554.961 38.25V37.7031L554.883 37.1562ZM553.398 44.5V45.0469H553.555C553.815 44.9427 553.945 44.6302 553.945 44.1094V43.5625H553.711C553.607 43.5625 553.503 43.875 553.398 44.5ZM553.555 45.6719L553.32 45.9844V46.375H553.555L553.867 46.1406V45.9062L553.633 45.6719H553.555ZM559.805 47.5469L559.57 47.625C559.883 47.8854 560.456 48.0417 561.289 48.0938V47.8594C561.289 47.651 560.951 47.5469 560.273 47.5469H559.805ZM560.117 50.8281L559.18 51.0625C559.284 51.6875 559.753 52 560.586 52H560.82V51.7656L560.664 51.5312C560.664 51.4792 560.872 51.3229 561.289 51.0625V50.6719C561.289 50.3073 561.185 50.099 560.977 50.0469H560.664C560.508 50.099 560.326 50.3594 560.117 50.8281ZM545.195 50.125L544.648 50.2812V50.3594C545.065 50.776 546.68 51.0104 549.492 51.0625H550.039C550.456 51.0625 550.716 50.9323 550.82 50.6719V50.5156C548.633 50.2552 546.758 50.125 545.195 50.125ZM552.539 51.0625L552.852 51.4531C553.32 51.4531 553.555 51.1927 553.555 50.6719H553.164C552.852 50.6719 552.643 50.8021 552.539 51.0625ZM559.883 52.625L559.648 52.9375V53.0938H559.805L560.039 52.7812V52.625H559.883ZM553.867 53.0938L552.852 53.1719H551.758V53.4844L552.852 53.5625L555.117 53.4062V53.1719H554.805L553.867 53.0938ZM561.836 55.75L561.523 55.9844V56.2188H561.992L562.07 55.9844L561.992 55.75H561.836Z" fill="white"/>
</svg>
